<svg xmlns="http://www.w3.org/2000/svg" viewBox="0 0 574 375"><defs><style>.cls-1{fill:#999}.cls-2{fill:#d9e021}</style></defs><title>Azzcat Design Logotype</title><g id="Layer_2" data-name="Layer 2"><g id="Layer_1-2" data-name="Layer 1"><g id="Layer_2-2" data-name="Layer 2"><g id="logo"><g id="logotype"><path class="cls-1" d="M392.5 0h-71.26v74h-60L235 0H133L0 375h107l23.44-74h126.14l-15.08-50.84-5-17.5L195.86 92h-18L223 250.16l9.33 32.84H117.39L94 357H25L145.5 18h77l26.17 73.77.11.23h72.46v209h61.26c54 0 102.5-55 102.5-113.5S436.5 74 382.5 74h-43.26V18h53.26c97 0 163.5 72.58 163.5 169.58s-66.5 169.54-163.5 169.54l-118.86.16L278.5 375h114C501 375 574 294 574 187.5S501 0 392.5 0zm-10 92c47.5 0 84.5 48.5 84.5 95.5S430 283 382.5 283h-43.26V92z"/><path id="fill" class="cls-2" d="M382.5 92c47.5 0 84.5 48.5 84.5 95.5S430 283 382.5 283h-43.26V92z"/></g></g></g></g></g></svg>