<svg xmlns="http://www.w3.org/2000/svg" viewBox="0 0 612 792"><defs><style>.cls-1{fill:none}.cls-2{font-size:24.2px;font-family:Circa,Circa}.cls-2,.cls-8{fill:#a2958a}.cls-3,.cls-4{letter-spacing:-.05em}.cls-47,.cls-5{fill:#413000}.cls-5{stroke:#413000;stroke-width:1.49px}.cls-6{clip-path:url(#clip-path)}.cls-7{fill:#e9e2d2;stroke:#e9e2d2;stroke-width:.55px}.cls-8{font-size:14px;font-family:NeubauSerif,Neubau Serif}.cls-9{letter-spacing:.01em}.cls-10{letter-spacing:-.01em}.cls-11{letter-spacing:.01em}.cls-12,.cls-13{letter-spacing:0}.cls-14{letter-spacing:.03em}.cls-15,.cls-16{letter-spacing:.01em}.cls-17,.cls-18{letter-spacing:0}.cls-19,.cls-20,.cls-21,.cls-22{letter-spacing:.01em}.cls-23{letter-spacing:.02em}.cls-24{letter-spacing:-.01em}.cls-25{letter-spacing:.01em}.cls-26{letter-spacing:-.01em}.cls-27{letter-spacing:0}.cls-28{letter-spacing:-.01em}.cls-29{letter-spacing:0}.cls-30,.cls-31,.cls-32{letter-spacing:.01em}.cls-33{fill:#6a5717;letter-spacing:0}.cls-33,.cls-48{font-family:Neubau-Bold,Neubau;font-weight:700}.cls-34{letter-spacing:-.03em}.cls-35,.cls-36,.cls-37{letter-spacing:-.02em}.cls-38{letter-spacing:-.01em}.cls-39{letter-spacing:-.02em}.cls-40{letter-spacing:0}.cls-41,.cls-42,.cls-43{letter-spacing:-.02em}.cls-44,.cls-45{letter-spacing:-.01em}.cls-46{letter-spacing:-.03em}.cls-48{font-size:22px;fill:#d8ccb2}.cls-49{letter-spacing:.02em}.cls-50{letter-spacing:0}.cls-51{letter-spacing:.01em}.cls-52{letter-spacing:-.01em}.cls-53{letter-spacing:.01em}.cls-54,.cls-55,.cls-56{letter-spacing:0}.cls-57{letter-spacing:.01em}.cls-58{letter-spacing:0}.cls-59{letter-spacing:.01em}.cls-60{letter-spacing:0}.cls-61{letter-spacing:.01em}.cls-62{letter-spacing:-.01em}.cls-63{letter-spacing:.01em}.cls-64{letter-spacing:-.01em}.cls-65{letter-spacing:0}.cls-66{letter-spacing:-.01em}.cls-67,.cls-68{letter-spacing:0}.cls-69{letter-spacing:.01em}.cls-70{letter-spacing:-.01em}.cls-71{letter-spacing:.02em}.cls-72{letter-spacing:-.01em}.cls-73,.cls-74{letter-spacing:0}.cls-75,.cls-76{letter-spacing:-.01em}.cls-77{letter-spacing:0}.cls-78,.cls-79{letter-spacing:-.01em}.cls-80{clip-path:url(#clip-path-2)}.cls-81{clip-path:url(#clip-path-3)}.cls-82{clip-path:url(#clip-path-4)}</style><clipPath id="clip-path"><path class="cls-1" d="M135.17 148.78h147.92v223.37H135.17z"/></clipPath><clipPath id="clip-path-2"><path class="cls-1" d="M437.5 148.33h147.92V371.7H437.5z"/></clipPath><clipPath id="clip-path-3"><path class="cls-1" d="M134.45 526.81h147.92v223.37H134.45z"/></clipPath><clipPath id="clip-path-4"><path class="cls-1" d="M438.21 527.14h147.92v223.37H438.21z"/></clipPath></defs><title>EyeStyles postcard</title><g id="logo"><text class="cls-2" transform="translate(165.93 115.81)"><tspan class="cls-3">,</tspan><tspan x="5.01" y="0">L</tspan><tspan class="cls-4" x="12.34" y="0">L</tspan><tspan x="18.46" y="0">C</tspan></text><g id="logo-2" data-name="logo"><path class="cls-5" d="M43.53 90a11.84 11.84 0 00-11.83 9.87h25.18c.18 5-1.3 8.91-4.44 11.73a13.27 13.27 0 01-9.14 3.59v-1.79a10.74 10.74 0 008.52-3.72 11.51 11.51 0 003.18-8H29.82a13.52 13.52 0 0113.71-13.46zM95.77 114.29v-5.82a11.8 11.8 0 01-4.12 4.43 13.47 13.47 0 01-21.06-11.15v-13h1.8v13A11.69 11.69 0 0092.32 110a11.38 11.38 0 003.45-8.29v-13h1.79v25.45a9.88 9.88 0 01-2.37 6.8 13.82 13.82 0 01-5.28 3.36v-1.79c3.89-1.74 5.86-4.53 5.86-8.24zM104.18 108.42a4.48 4.48 0 001.12 2.87 4.55 4.55 0 003.86 1.61v1.79a6.29 6.29 0 01-5.47-2.55 6.45 6.45 0 01-1.29-3.72V79.17h1.78zM110.76 101.68a11.36 11.36 0 003.32 8.11 11.21 11.21 0 008.37 3.59v1.79a13.5 13.5 0 01-9.54-23 13.48 13.48 0 0123 9.54zM134 99.87a11.08 11.08 0 00-4-7 11.67 11.67 0 00-19.09 7zM152.59 90a11.84 11.84 0 00-11.83 9.86h25.18c.18 5-1.3 8.91-4.44 11.73a13.24 13.24 0 01-9.13 3.59v-1.78a10.73 10.73 0 008.51-3.72 11.51 11.51 0 003.18-8h-25.18a13.54 13.54 0 0113.71-13.48zM31.67 67.44A11.4 11.4 0 0035 75.57a11.27 11.27 0 008.38 3.58V81a13.47 13.47 0 01-13.5-13.54A13.45 13.45 0 0143.36 54a13.45 13.45 0 0113.48 13.46zm23.25-1.81a11.1 11.1 0 00-4-7 11.22 11.22 0 00-7.52-2.82 11.71 11.71 0 00-11.6 9.82z"/><path class="cls-5" d="M75.78999999999999 90.51H62v18a4.51 4.51 0 001.11 2.87 4.57 4.57 0 003.83 1.62v1.79a6.28 6.28 0 01-5.46-2.55 6.49 6.49 0 01-1.3-3.72V84.68H62v4h13.71a13.2 13.2 0 004.12-.61 8.68 8.68 0 005.52-8v-5.84a11.8 11.8 0 01-4.12 4.43 13.48 13.48 0 01-21.06-11.15v-13H62v13a11.68 11.68 0 0019.9 8.28 11.34 11.34 0 003.45-8.28v-13h1.79v25.4a10.06 10.06 0 01-2.37 6.81 13.11 13.11 0 01-4.47 3 14.73 14.73 0 01-4.51.79zM92.3 67.44a11.36 11.36 0 003.32 8.11 11.24 11.24 0 008.38 3.6V81a13.47 13.47 0 01-13.49-13.54 13.48 13.48 0 1127 0zm23.24-1.81a11.09 11.09 0 00-4-7 11.22 11.22 0 00-7.54-2.86 11.71 11.71 0 00-11.55 9.86z"/></g></g><g id="located"><g class="cls-6" id="pattern_bottom" data-name="pattern bottom"><g id="pattern_bottom-2" data-name="pattern bottom"><path class="cls-7" d="M197.64 286.55a10.4 10.4 0 00-10.4 8.67h22.14c.15 4.37-1.15 7.84-3.91 10.32a11.66 11.66 0 01-8 3.15v-1.58a9.38 9.38 0 007.48-3.26 10.08 10.08 0 002.8-7h-22.17A11.92 11.92 0 01197.64 285z"/><path class="cls-7" d="M175.52 284.91a10.07 10.07 0 002.93 7.17 9.93 9.93 0 007.4 3.17v1.58a11.94 11.94 0 1111.92-11.92zm20.55-1.6a9.81 9.81 0 00-3.56-6.22 10 10 0 00-6.66-2.5 10.08 10.08 0 00-6.73 2.5 9.94 9.94 0 00-3.48 6.22z"/><path class="cls-7" d="M173.75 308.77a11.92 11.92 0 1111.92 11.92v-1.59a10 10 0 007.4-3.16 10.07 10.07 0 002.93-7.17zm22.14-1.62a10.28 10.28 0 00-16.89-6.22 9.84 9.84 0 00-3.57 6.22z"/><path class="cls-7" d="M175 308.76a11.88 11.88 0 0112.05 11.85h-22.11a10.1 10.1 0 002.8 7 9.39 9.39 0 007.48 3.27v1.58a11.66 11.66 0 01-8-3.15c-2.76-2.49-4.06-5.95-3.9-10.32h22.14a10.42 10.42 0 00-10.4-8.67z"/><path class="cls-7" d="M185.81 322.15a10.4 10.4 0 00-10.4 8.66h22.13c.16 4.38-1.14 7.84-3.9 10.33a11.71 11.71 0 01-8 3.15v-1.58a9.39 9.39 0 007.48-3.27 10.1 10.1 0 002.8-7h-22.17a11.92 11.92 0 0112.06-11.86zM163.3 297a10.41 10.41 0 00-10.3 10.35h-1.58a11.92 11.92 0 1111.91 11.91zm1.6 20.55a9.81 9.81 0 006.22-3.56 9.91 9.91 0 002.5-6.65 10.38 10.38 0 00-8.72-10.22zM197.69 283.47a10.42 10.42 0 008.66 10.41v-22.15c4.38-.15 7.84 1.15 10.32 3.9a11.7 11.7 0 013.15 8h-1.57a9.42 9.42 0 00-3.27-7.48 10.1 10.1 0 00-7-2.8v22.14a11.9 11.9 0 01-11.86-12.06z"/><path class="cls-7" d="M209.47 296.87a10.07 10.07 0 002.93 7.17 10 10 0 007.41 3.17v1.58a11.93 11.93 0 1111.92-11.92zm20.55-1.6a9.76 9.76 0 00-3.56-6.22 10 10 0 00-6.65-2.5 10.06 10.06 0 00-6.73 2.5 10 10 0 00-3.49 6.22zM187.29 320.4a10.42 10.42 0 008.71 10.4v-22.14c4.37-.16 7.84 1.14 10.32 3.9a11.67 11.67 0 013.15 8h-1.58a9.39 9.39 0 00-3.27-7.49 10.08 10.08 0 00-7-2.8v22.14a11.88 11.88 0 01-11.85-12.05zM242.27 310.6a10.4 10.4 0 00-10.4 8.67H254c.15 4.37-1.15 7.84-3.9 10.32a11.7 11.7 0 01-8 3.15v-1.58a9.39 9.39 0 007.48-3.26 10.08 10.08 0 002.8-7h-22.17a11.9 11.9 0 0112.06-11.9z"/><path class="cls-7" d="M220.15 309a10.06 10.06 0 002.93 7.17 9.93 9.93 0 007.4 3.17v1.58A11.93 11.93 0 11242.4 309zm20.55-1.6a10.51 10.51 0 00-10.22-8.71 10.34 10.34 0 00-10.21 8.71z"/><path class="cls-7" d="M218.38 332.82a11.94 11.94 0 1111.92 11.92v-1.58a10.41 10.41 0 0010.34-10.34zm22.14-1.62a10.28 10.28 0 00-16.87-6.2 9.78 9.78 0 00-3.57 6.22z"/><path class="cls-7" d="M219.66 332.81a11.88 11.88 0 0112.05 11.85h-22.14a10.14 10.14 0 002.8 7 9.41 9.41 0 007.48 3.26v1.58a11.66 11.66 0 01-8-3.15c-2.76-2.49-4.06-5.95-3.9-10.32h22.14a10.42 10.42 0 00-10.4-8.67z"/><path class="cls-7" d="M230.44 346.2a10.4 10.4 0 00-10.4 8.67h22.13c.16 4.37-1.14 7.84-3.9 10.32a11.71 11.71 0 01-8 3.15v-1.58a9.39 9.39 0 007.48-3.27 10.1 10.1 0 002.8-7h-22.17a11.92 11.92 0 0112.06-11.86zM207.93 321.06a10.07 10.07 0 00-7.17 2.93 10 10 0 00-3.17 7.41H196a11.94 11.94 0 1111.92 11.91zm1.6 20.55a9.81 9.81 0 006.22-3.56 10 10 0 002.5-6.65 10.38 10.38 0 00-8.72-10.22zM242.32 307.53a10.42 10.42 0 008.66 10.4v-22.14c4.37-.16 7.84 1.14 10.32 3.9a11.67 11.67 0 013.15 8h-1.57a9.42 9.42 0 00-3.27-7.49 10.1 10.1 0 00-7-2.8v22.14a11.9 11.9 0 01-11.86-12.05z"/><path class="cls-7" d="M254.1 320.92a10.07 10.07 0 002.93 7.17 10 10 0 007.41 3.17v1.58a11.92 11.92 0 1111.92-11.92zm20.56-1.6a9.82 9.82 0 00-3.57-6.22 10 10 0 00-6.65-2.49 10.36 10.36 0 00-10.22 8.71zM231.92 344.45a10.42 10.42 0 008.67 10.4v-22.14c4.37-.16 7.84 1.14 10.32 3.9a11.67 11.67 0 013.15 8h-1.58a9.39 9.39 0 00-3.27-7.49 10.07 10.07 0 00-7-2.79v22.17a11.88 11.88 0 01-11.85-12.05zM230.16 227.6a10.42 10.42 0 00-10.4 8.67h22.14c.16 4.38-1.14 7.84-3.9 10.32a11.68 11.68 0 01-8 3.15v-1.57a9.42 9.42 0 007.49-3.27 10.1 10.1 0 002.8-7h-22.18a11.88 11.88 0 0112-11.85z"/><path class="cls-7" d="M208 226a10.1 10.1 0 002.93 7.18 10 10 0 007.41 3.16v1.59A11.93 11.93 0 11230.3 226zm20.56-1.6a10.55 10.55 0 00-10.22-8.71 10.38 10.38 0 00-10.22 8.71z"/><path class="cls-7" d="M206.27 249.83a11.93 11.93 0 1111.92 11.91v-1.58a10 10 0 007.41-3.16 10.07 10.07 0 002.93-7.16zm22.14-1.63a10.36 10.36 0 00-10.22-8.71 10 10 0 00-6.65 2.49 9.81 9.81 0 00-3.54 6.22z"/><path class="cls-7" d="M207.55 249.81a11.88 11.88 0 0112 11.85h-22.08a10.11 10.11 0 002.79 7 9.45 9.45 0 007.49 3.27v1.57a11.68 11.68 0 01-8-3.15c-2.76-2.48-4.06-5.95-3.9-10.32H218a10.42 10.42 0 00-10.4-8.67z"/><path class="cls-7" d="M218.33 263.2a10.42 10.42 0 00-10.4 8.67h22.14c.16 4.37-1.14 7.84-3.9 10.32a11.7 11.7 0 01-8 3.15v-1.58a9.39 9.39 0 007.49-3.27 10.07 10.07 0 002.79-7h-22.18a11.9 11.9 0 0112.06-11.85zM195.82 238.07a10.09 10.09 0 00-7.17 2.93 10 10 0 00-3.16 7.4h-1.59a11.93 11.93 0 1111.92 11.92zm1.61 20.55a10.55 10.55 0 008.71-10.22 10.38 10.38 0 00-8.71-10.22zM230.21 224.53a10.4 10.4 0 008.67 10.4v-22.14c4.37-.16 7.83 1.14 10.32 3.9a11.7 11.7 0 013.14 8h-1.57a9.39 9.39 0 00-3.27-7.49 10.1 10.1 0 00-7-2.8v22.15a11.92 11.92 0 01-11.86-12.06z"/><path class="cls-7" d="M242 237.92a10.05 10.05 0 002.93 7.16 9.93 9.93 0 007.4 3.17v1.58A11.93 11.93 0 11264.25 238zm20.55-1.6a9.86 9.86 0 00-3.55-6.22 10 10 0 00-6.66-2.5 10.36 10.36 0 00-10.21 8.72zM219.82 261.45a10.4 10.4 0 008.66 10.4v-22.14c4.37-.15 7.84 1.14 10.32 3.9a11.7 11.7 0 013.15 8h-1.57a9.39 9.39 0 00-3.27-7.48 10.07 10.07 0 00-7-2.8v22.14a11.92 11.92 0 01-11.86-12.06zM274.85 251.57a10.42 10.42 0 00-10.4 8.67h22.14c.16 4.37-1.14 7.84-3.9 10.32a11.67 11.67 0 01-8 3.15v-1.58a9.39 9.39 0 007.49-3.27 10.1 10.1 0 002.8-7H262.8A11.9 11.9 0 01274.85 250z"/><path class="cls-7" d="M252.74 249.93a10.09 10.09 0 002.92 7.17 10 10 0 007.41 3.17v1.58A11.93 11.93 0 11275 250zm20.55-1.6a9.82 9.82 0 00-3.57-6.22 10 10 0 00-6.65-2.49 10.36 10.36 0 00-10.22 8.71z"/><path class="cls-7" d="M251 273.79a11.92 11.92 0 1111.91 11.92v-1.59a10.41 10.41 0 0010.34-10.33zm22.13-1.62a9.94 9.94 0 00-3.48-6.22 10.08 10.08 0 00-6.74-2.49 10 10 0 00-6.65 2.49 9.76 9.76 0 00-3.56 6.22z"/><path class="cls-7" d="M252.24 273.78a11.9 11.9 0 0112.06 11.85h-22.14a10.09 10.09 0 002.8 7 9.4 9.4 0 007.48 3.27v1.57a11.7 11.7 0 01-8-3.15c-2.75-2.48-4.05-5.95-3.9-10.33h22.14a10.42 10.42 0 00-10.4-8.66z"/><path class="cls-7" d="M263 287.17a10.42 10.42 0 00-10.4 8.67h22.14c.16 4.37-1.14 7.84-3.9 10.32a11.67 11.67 0 01-8 3.15v-1.58a9.41 9.41 0 007.49-3.26 10.12 10.12 0 002.8-7H251a11.9 11.9 0 0112-11.86zM240.52 262a10.07 10.07 0 00-7.17 2.93 10 10 0 00-3.17 7.41h-1.58a11.93 11.93 0 1111.92 11.91zm1.6 20.55a9.86 9.86 0 006.22-3.56 10 10 0 002.49-6.65 10.34 10.34 0 00-8.71-10.22zM274.9 248.49a10.42 10.42 0 008.67 10.41v-22.14c4.37-.16 7.83 1.14 10.32 3.9a11.7 11.7 0 013.14 8h-1.57a9.42 9.42 0 00-3.27-7.49 10.09 10.09 0 00-7-2.79v22.14a11.88 11.88 0 01-11.85-12.06z"/><path class="cls-7" d="M286.69 261.89a10 10 0 002.93 7.17 9.91 9.91 0 007.4 3.17v1.58a11.91 11.91 0 1112-11.92zm20.58-1.61a9.8 9.8 0 00-3.59-6.21 9.91 9.91 0 00-6.66-2.5 10.38 10.38 0 00-10.22 8.71zM264.51 285.42a10.4 10.4 0 008.66 10.4v-22.14c4.37-.16 7.84 1.14 10.32 3.9a11.67 11.67 0 013.15 8h-1.57a9.42 9.42 0 00-3.27-7.49 10.1 10.1 0 00-7-2.8v22.15a11.92 11.92 0 01-11.86-12.06zM262.87 168.29a10.4 10.4 0 00-10.39 8.71h22.13c.16 4.38-1.14 7.84-3.9 10.32a11.67 11.67 0 01-8 3.16v-1.58a9.39 9.39 0 007.48-3.27 10.1 10.1 0 002.8-7h-22.17a11.92 11.92 0 0112.05-11.86z"/><path class="cls-7" d="M240.76 166.65a10.07 10.07 0 002.93 7.17 9.93 9.93 0 007.4 3.17v1.58a11.94 11.94 0 1111.91-11.9zm20.55-1.6a9.82 9.82 0 00-3.57-6.22 9.93 9.93 0 00-6.65-2.49 10.07 10.07 0 00-6.73 2.49 9.94 9.94 0 00-3.48 6.22z"/><path class="cls-7" d="M239 190.51a11.93 11.93 0 1111.92 11.91v-1.58a9.93 9.93 0 007.4-3.17 10.05 10.05 0 002.93-7.16zm22.13-1.63a9.94 9.94 0 00-3.48-6.21 10.08 10.08 0 00-6.73-2.5 10 10 0 00-6.66 2.5 9.81 9.81 0 00-3.56 6.21z"/><path class="cls-7" d="M240.26 190.5a11.88 11.88 0 0112.06 11.85h-22.14a10.1 10.1 0 002.8 7 9.42 9.42 0 007.48 3.27v1.57a11.66 11.66 0 01-8-3.15c-2.76-2.48-4.06-6-3.9-10.32h22.13a10.4 10.4 0 00-10.4-8.66z"/><path class="cls-7" d="M251 203.88a10.44 10.44 0 00-10.4 8.67h22.14c.16 4.37-1.14 7.84-3.9 10.32a11.66 11.66 0 01-8 3.15v-1.57a9.42 9.42 0 007.48-3.27 10.11 10.11 0 002.8-7H239a11.92 11.92 0 0112-11.86zM228.54 178.75a10.07 10.07 0 00-7.17 2.93 9.93 9.93 0 00-3.17 7.4h-1.6A11.92 11.92 0 11228.52 201zm1.6 20.55a10.53 10.53 0 008.71-10.22 10.07 10.07 0 00-2.49-6.73 10 10 0 00-6.22-3.48zM262.92 165.22a10.42 10.42 0 008.67 10.4v-22.14c4.37-.16 7.84 1.14 10.32 3.9a11.66 11.66 0 013.15 8h-1.57a9.42 9.42 0 00-3.27-7.48 10.11 10.11 0 00-7-2.8v22.14a11.9 11.9 0 01-11.86-12.05z"/><path class="cls-7" d="M274.71 178.61a10.07 10.07 0 002.93 7.17A10 10 0 00285 189v1.59a11.94 11.94 0 1112-11.96zm20.55-1.61a10.51 10.51 0 00-10.26-8.71 10.34 10.34 0 00-10.17 8.71zM252.53 202.13a10.4 10.4 0 008.67 10.4V190.4c4.37-.16 7.83 1.14 10.32 3.9a11.71 11.71 0 013.15 8h-1.58a9.39 9.39 0 00-3.27-7.48 10.1 10.1 0 00-7-2.8v22.14A11.92 11.92 0 01251 202.13z"/></g></g><text class="cls-8" transform="translate(28.54 246.57)"><tspan class="cls-9">7</tspan><tspan class="cls-10" x="4.92" y="0">3</tspan><tspan class="cls-11" x="10.44" y="0">6</tspan><tspan x="16.29" y="0">7 </tspan><tspan class="cls-12" x="23.57" y="0">S</tspan><tspan x="30.06" y="0">W </tspan><tspan class="cls-13" x="41.8" y="0">B</tspan><tspan class="cls-14" x="48.8" y="0">r</tspan><tspan class="cls-15" x="52.71" y="0">i</tspan><tspan class="cls-16" x="55.78" y="0">d</tspan><tspan class="cls-17" x="61.3" y="0">g</tspan><tspan class="cls-11" x="66.36" y="0">e</tspan><tspan class="cls-18" x="71.52" y="0">p</tspan><tspan class="cls-19" x="76.9" y="0">o</tspan><tspan class="cls-20" x="82.14" y="0">r</tspan><tspan x="85.84" y="0">t </tspan><tspan class="cls-21" x="91.77" y="0">R</tspan><tspan x="99.03" y="0">d</tspan><tspan class="cls-20" x="0" y="16">P</tspan><tspan class="cls-19" x="6.84" y="16">o</tspan><tspan class="cls-20" x="12.08" y="16">r</tspan><tspan class="cls-21" x="15.78" y="16">t</tspan><tspan class="cls-22" x="19.28" y="16">l</tspan><tspan class="cls-23" x="22.42" y="16">a</tspan><tspan class="cls-19" x="27.92" y="16">n</tspan><tspan class="cls-9" x="33.65" y="16">d</tspan><tspan x="39.22" y="16">, </tspan><tspan class="cls-24" x="44.64" y="16">O</tspan><tspan x="51.12" y="16">R </tspan><tspan class="cls-16" x="60.81" y="16">9</tspan><tspan class="cls-20" x="66.66" y="16">7</tspan><tspan class="cls-25" x="71.58" y="16">2</tspan><tspan class="cls-26" x="77.31" y="16">2</tspan><tspan x="82.76" y="16">4</tspan><tspan class="cls-27" x="0" y="32">5</tspan><tspan class="cls-18" x="5.48" y="32">0</tspan><tspan class="cls-28" x="11.21" y="32">3</tspan><tspan class="cls-29" x="16.7" y="32">.</tspan><tspan class="cls-25" x="19.5" y="32">3</tspan><tspan class="cls-20" x="25.3" y="32">7</tspan><tspan class="cls-30" x="30.22" y="32">2</tspan><tspan class="cls-29" x="35.88" y="32">.</tspan><tspan class="cls-27" x="38.69" y="32">5</tspan><tspan class="cls-31" x="44.17" y="32">0</tspan><tspan class="cls-32" x="50.05" y="32">1</tspan><tspan x="54.16" y="32">3</tspan><tspan class="cls-33"><tspan x="0" y="62">ww</tspan><tspan class="cls-34" x="14.58" y="62">w</tspan><tspan class="cls-35" x="21.47" y="62">.</tspan><tspan class="cls-36" x="24.42" y="62">e</tspan><tspan class="cls-37" x="29.71" y="62">y</tspan><tspan class="cls-38" x="34.9" y="62">e</tspan><tspan class="cls-39" x="40.23" y="62">s</tspan><tspan class="cls-40" x="45.07" y="62">t</tspan><tspan class="cls-39" x="49.02" y="62">y</tspan><tspan class="cls-41" x="54.24" y="62">l</tspan><tspan class="cls-38" x="57.49" y="62">e</tspan><tspan class="cls-42" x="62.82" y="62">s</tspan><tspan class="cls-43" x="67.63" y="62">l</tspan><tspan class="cls-41" x="70.8" y="62">l</tspan><tspan class="cls-44" x="74.05" y="62">c</tspan><tspan class="cls-35" x="79.11" y="62">.</tspan><tspan class="cls-45" x="82.06" y="62">c</tspan><tspan class="cls-46" x="87.15" y="62">o</tspan><tspan class="cls-37" x="92.3" y="62">m</tspan></tspan></text><path class="cls-47" d="M28.51 134.3H282.5v83.88H28.51z"/><text class="cls-48" transform="translate(40.18 161.05)"><tspan class="cls-49">L</tspan><tspan class="cls-50" x="9.77" y="0">o</tspan><tspan class="cls-51" x="18.35" y="0">c</tspan><tspan class="cls-52" x="26.73" y="0">a</tspan><tspan class="cls-53" x="35.31" y="0">t</tspan><tspan class="cls-54" x="41.63" y="0">e</tspan><tspan x="50.22" y="0">d </tspan><tspan class="cls-55" x="63.62" y="0">a</tspan><tspan class="cls-56" x="72.3" y="0">c</tspan><tspan class="cls-57" x="80.56" y="0">r</tspan><tspan class="cls-58" x="86.9" y="0">o</tspan><tspan class="cls-59" x="95.65" y="0">s</tspan><tspan x="103.92" y="0">s </tspan><tspan class="cls-60" x="116.32" y="0">f</tspan><tspan class="cls-61" x="122.65" y="0">r</tspan><tspan class="cls-52" x="128.99" y="0">o</tspan><tspan x="137.46" y="0">m</tspan><tspan class="cls-62" x="0" y="22">U</tspan><tspan class="cls-63" x="10.94" y="22">r</tspan><tspan class="cls-54" x="17.14" y="22">b</tspan><tspan class="cls-64" x="26.06" y="22">a</tspan><tspan x="34.62" y="22">n </tspan><tspan class="cls-65" x="48.13" y="22">O</tspan><tspan class="cls-66" x="58.81" y="22">u</tspan><tspan class="cls-67" x="67.51" y="22">t</tspan><tspan class="cls-68" x="73.7" y="22">f</tspan><tspan class="cls-50" x="80.02" y="22">i</tspan><tspan class="cls-69" x="85.37" y="22">t</tspan><tspan class="cls-53" x="91.62" y="22">t</tspan><tspan class="cls-70" x="97.95" y="22">e</tspan><tspan class="cls-71" x="106.42" y="22">r</tspan><tspan x="112.93" y="22">s </tspan><tspan class="cls-64" x="0" y="44">a</tspan><tspan class="cls-55" x="8.56" y="44">n</tspan><tspan x="17.56" y="44">d </tspan><tspan class="cls-72" x="30.96" y="44">R</tspan><tspan class="cls-73" x="41.7" y="44">e</tspan><tspan class="cls-74" x="50.34" y="44">g</tspan><tspan class="cls-75" x="59.08" y="44">a</tspan><tspan x="67.62" y="44">l </tspan><tspan class="cls-76" x="77.47" y="44">C</tspan><tspan class="cls-77" x="87.91" y="44">im</tspan><tspan class="cls-78" x="106.41" y="44">e</tspan><tspan class="cls-79" x="114.85" y="44">n</tspan><tspan class="cls-56" x="123.82" y="44">a</tspan><tspan x="132.63" y="44">s</tspan></text></g><g id="Layer_4" data-name="Layer 4"><text class="cls-2" transform="translate(468.26 115.36)"><tspan class="cls-3">,</tspan><tspan x="5.01" y="0">L</tspan><tspan class="cls-4" x="12.34" y="0">L</tspan><tspan x="18.46" y="0">C</tspan></text><g id="logo-3" data-name="logo"><path class="cls-5" d="M345.85 89.57A11.85 11.85 0 00334 99.42h25.18c.18 5-1.3 8.92-4.44 11.74a13.3 13.3 0 01-9.14 3.58V113a10.66 10.66 0 008.51-3.72 11.45 11.45 0 003.19-8h-25.15a13.52 13.52 0 0113.7-13.48zM398.1 113.85V108a12 12 0 01-4.12 4.44 13.47 13.47 0 01-21.06-11.16v-13h1.79v13a11.69 11.69 0 0019.94 8.29 11.36 11.36 0 003.45-8.29v-13h1.79v25.44a9.88 9.88 0 01-2.37 6.81 13.87 13.87 0 01-5.29 3.36v-1.8c3.9-1.75 5.87-4.53 5.87-8.24zM406.51 108a4.52 4.52 0 001.12 2.87 4.59 4.59 0 003.85 1.61v1.79a6.28 6.28 0 01-5.48-2.57 6.49 6.49 0 01-1.3-3.72V78.73h1.79zM413.09 101.24a11.41 11.41 0 003.31 8.11 11.27 11.27 0 008.38 3.58v1.79a13.49 13.49 0 01-9.54-23 13.48 13.48 0 0123 9.54zm23.25-1.82a11.11 11.11 0 00-4-7 11.67 11.67 0 00-19.09 7zM454.92 89.57a11.85 11.85 0 00-11.83 9.85h25.18c.18 5-1.3 8.92-4.44 11.74a13.3 13.3 0 01-9.14 3.58V113a10.68 10.68 0 008.52-3.72 11.48 11.48 0 003.18-8h-25.18a13.54 13.54 0 0113.71-13.48zM334 67a11.36 11.36 0 003.32 8.1 11.23 11.23 0 008.38 3.59v1.81A13.45 13.45 0 01332.2 67a13.49 13.49 0 1127 0zm23.26-1.82a11.92 11.92 0 00-11.56-9.85 11.71 11.71 0 00-11.56 9.85z"/><path class="cls-5" d="M378.1 90.06h-13.8v18a4.48 4.48 0 001.12 2.87 4.54 4.54 0 003.85 1.61v1.79a6.27 6.27 0 01-5.46-2.55 6.46 6.46 0 01-1.3-3.72V84.24h1.79v4H378a13.17 13.17 0 004.12-.62 8.66 8.66 0 005.53-8.05v-5.79a11.88 11.88 0 01-4.12 4.43 13.47 13.47 0 01-21.03-11.14V54h1.79v13a11.7 11.7 0 0019.94 8.28 11.37 11.37 0 003.45-8.28V54h1.79v25.47a10 10 0 01-2.38 6.81 13.06 13.06 0 01-4.47 3 15 15 0 01-4.5.78zM394.63 67a11.36 11.36 0 003.32 8.1 11.19 11.19 0 008.37 3.59v1.81A13.45 13.45 0 01392.84 67a13.48 13.48 0 1127 0zm23.24-1.82a11.11 11.11 0 00-4-7 11.24 11.24 0 00-7.52-2.82 11.36 11.36 0 00-7.61 2.82 11.23 11.23 0 00-3.94 7z"/></g><g class="cls-80" id="pattern_bottom-3" data-name="pattern bottom"><g id="pattern_bottom-4" data-name="pattern bottom"><path class="cls-7" d="M500 286.1a10.42 10.42 0 00-10.39 8.67h22.09c.16 4.38-1.14 7.84-3.9 10.32a11.66 11.66 0 01-8 3.15v-1.57a9.39 9.39 0 007.48-3.27 10.1 10.1 0 002.8-7h-22.17a11.92 11.92 0 0112-11.86z"/><path class="cls-7" d="M477.85 284.46a10.1 10.1 0 002.93 7.18 9.92 9.92 0 007.4 3.16v1.59a11.94 11.94 0 1111.92-11.93zm20.55-1.6a9.83 9.83 0 00-3.57-6.22 9.93 9.93 0 00-6.65-2.49 10.36 10.36 0 00-10.18 8.71z"/><path class="cls-7" d="M476.08 308.33A11.93 11.93 0 11488 320.24v-1.58a9.93 9.93 0 007.4-3.17 10.05 10.05 0 002.93-7.16zm22.13-1.62a10.36 10.36 0 00-20.43 0z"/><path class="cls-7" d="M477.35 308.32a11.9 11.9 0 0112.06 11.84h-22.14a10.12 10.12 0 002.8 7 9.45 9.45 0 007.48 3.27V332a11.66 11.66 0 01-8-3.15c-2.76-2.48-4.06-5.95-3.9-10.32h22.14a10.42 10.42 0 00-10.41-8.67z"/><path class="cls-7" d="M488.13 321.71a10.38 10.38 0 00-10.39 8.66h22.13c.16 4.37-1.14 7.84-3.9 10.32a11.66 11.66 0 01-8 3.15v-1.57a9.39 9.39 0 007.48-3.28 10.08 10.08 0 002.8-7h-22.17a11.88 11.88 0 0112.05-11.85zM465.63 296.57a10.07 10.07 0 00-7.17 2.93 10 10 0 00-3.16 7.4h-1.6a11.91 11.91 0 1111.91 11.92zm1.6 20.55a9.82 9.82 0 006.22-3.57 9.93 9.93 0 002.49-6.65 10.07 10.07 0 00-2.49-6.73 9.94 9.94 0 00-6.22-3.48zM500 283a10.42 10.42 0 008.67 10.4v-22.11c4.37-.16 7.84 1.14 10.32 3.9a11.66 11.66 0 013.15 8h-1.57a9.42 9.42 0 00-3.27-7.48 10.09 10.09 0 00-7-2.79v22.14A11.92 11.92 0 01498.44 283z"/><path class="cls-7" d="M511.8 296.43a10.06 10.06 0 002.93 7.17 10 10 0 007.4 3.17v1.58a11.92 11.92 0 1111.93-11.92zm20.55-1.61a9.81 9.81 0 00-3.56-6.22 10 10 0 00-6.66-2.49 10.34 10.34 0 00-10.21 8.71zM489.62 320a10.42 10.42 0 008.67 10.41v-22.2c4.37-.15 7.83 1.15 10.32 3.9a11.75 11.75 0 013.15 8h-1.58a9.42 9.42 0 00-3.27-7.49 10.13 10.13 0 00-7-2.79V332A11.92 11.92 0 01488 320zM544.59 310.16a10.4 10.4 0 00-10.39 8.66h22.13c.16 4.37-1.14 7.84-3.9 10.32a11.67 11.67 0 01-8 3.16v-1.58a9.42 9.42 0 007.48-3.27 10.05 10.05 0 002.8-7h-22.17a11.92 11.92 0 0112.05-11.86z"/><path class="cls-7" d="M522.48 308.52a10.07 10.07 0 002.93 7.17 9.92 9.92 0 007.4 3.16v1.59a11.93 11.93 0 1111.92-11.92zm20.55-1.6a9.81 9.81 0 00-3.56-6.22 10 10 0 00-6.66-2.49 10.07 10.07 0 00-6.73 2.49 9.94 9.94 0 00-3.48 6.22z"/><path class="cls-7" d="M520.71 332.38a11.93 11.93 0 1111.92 11.91v-1.58a9.93 9.93 0 007.4-3.17 10.05 10.05 0 002.93-7.16zm22.13-1.62a10.27 10.27 0 00-16.84-6.22 9.81 9.81 0 00-3.56 6.22z"/><path class="cls-7" d="M522 332.36a11.92 11.92 0 0112 11.85h-22.1a10.1 10.1 0 002.8 7 9.39 9.39 0 007.48 3.27v1.57a11.7 11.7 0 01-8-3.14c-2.76-2.49-4.06-6-3.9-10.33h22.13a10.38 10.38 0 00-10.4-8.66z"/><path class="cls-7" d="M532.76 345.75a10.44 10.44 0 00-10.4 8.67h22.14c.16 4.37-1.14 7.84-3.9 10.32a11.66 11.66 0 01-8 3.15v-1.57a9.42 9.42 0 007.48-3.27 10.1 10.1 0 002.8-7h-22.17a11.92 11.92 0 0112-11.86zM510.26 320.62a10.07 10.07 0 00-7.17 2.93 9.93 9.93 0 00-3.17 7.4h-1.58a11.92 11.92 0 1111.92 11.92zm1.6 20.54a9.76 9.76 0 006.22-3.56 9.93 9.93 0 002.49-6.65 10.36 10.36 0 00-8.71-10.22zM544.65 307.08a10.4 10.4 0 008.66 10.4v-22.14c4.37-.15 7.84 1.15 10.32 3.9a11.7 11.7 0 013.15 8h-1.57a9.42 9.42 0 00-3.27-7.48 10.11 10.11 0 00-7-2.8v22.14a11.92 11.92 0 01-11.86-12.06z"/><path class="cls-7" d="M556.43 320.48a10.41 10.41 0 0010.34 10.33v1.58a11.92 11.92 0 1111.92-11.91zm20.57-1.61a9.76 9.76 0 00-3.56-6.21 9.91 9.91 0 00-6.65-2.5 10.36 10.36 0 00-10.22 8.71zM534.25 344a10.42 10.42 0 008.67 10.4v-22.13c4.37-.16 7.83 1.14 10.32 3.9a11.71 11.71 0 013.15 8h-1.58a9.39 9.39 0 00-3.27-7.48 10.1 10.1 0 00-7-2.8v22.14A11.92 11.92 0 01532.67 344zM532.49 227.16a10.57 10.57 0 00-7 2.56 10.45 10.45 0 00-3.42 6.11h22.14c.15 4.37-1.15 7.84-3.9 10.32a11.73 11.73 0 01-8 3.15v-1.58a9.39 9.39 0 007.49-3.27 10.07 10.07 0 002.79-7h-22.16a11.92 11.92 0 0112.06-11.86z"/><path class="cls-7" d="M510.37 225.52a10.07 10.07 0 002.93 7.17 10 10 0 007.41 3.17v1.58a11.93 11.93 0 1111.92-11.92zm20.55-1.6a9.76 9.76 0 00-3.56-6.22 9.91 9.91 0 00-6.65-2.5 10.36 10.36 0 00-10.22 8.72z"/><path class="cls-7" d="M508.6 249.38a11.93 11.93 0 1111.92 11.92v-1.59a10.39 10.39 0 0010.34-10.33zm22.14-1.62a10.28 10.28 0 00-16.87-6.22 9.82 9.82 0 00-3.57 6.22z"/><path class="cls-7" d="M509.88 249.37a11.88 11.88 0 0112 11.85h-22.09a10.1 10.1 0 002.8 7 9.39 9.39 0 007.49 3.27v1.57a11.67 11.67 0 01-8-3.15c-2.76-2.48-4.06-5.94-3.9-10.32h22.14a10.42 10.42 0 00-10.4-8.66z"/><path class="cls-7" d="M520.66 262.76a10.4 10.4 0 00-10.4 8.66h22.14c.15 4.38-1.15 7.84-3.9 10.32a11.71 11.71 0 01-8 3.16v-1.58a9.44 9.44 0 007.49-3.27 10.09 10.09 0 002.79-7H508.6a11.92 11.92 0 0112.06-11.86zM498.15 237.62a10.07 10.07 0 00-7.17 2.93 10 10 0 00-3.18 7.45h-1.59a11.94 11.94 0 1111.92 11.91zm1.6 20.55a9.82 9.82 0 006.25-3.57 9.93 9.93 0 002.5-6.64 10.09 10.09 0 00-2.5-6.74 9.94 9.94 0 00-6.22-3.48zM532.54 224.08a10.42 10.42 0 008.66 10.41v-22.15c4.38-.15 7.84 1.15 10.33 3.9a11.74 11.74 0 013.14 8h-1.57a9.39 9.39 0 00-3.27-7.48 10.1 10.1 0 00-7-2.8v22.14A11.92 11.92 0 01531 224.08z"/><path class="cls-7" d="M544.32 237.48a10.07 10.07 0 002.93 7.17 9.94 9.94 0 007.41 3.16v1.59a11.93 11.93 0 1111.92-11.92zm20.56-1.61a10.55 10.55 0 00-10.22-8.71 10.38 10.38 0 00-10.22 8.71zM522.14 261a10.4 10.4 0 008.67 10.39v-22.12c4.37-.16 7.84 1.14 10.32 3.9a11.66 11.66 0 013.15 8h-1.57a9.42 9.42 0 00-3.27-7.48 10.12 10.12 0 00-7-2.8v22.14A11.88 11.88 0 01520.57 261zM577.18 251.12a10.42 10.42 0 00-10.4 8.67h22.14c.16 4.37-1.14 7.84-3.9 10.32a11.67 11.67 0 01-8 3.15v-1.57a9.42 9.42 0 007.49-3.27 10.09 10.09 0 002.79-7h-22.17a11.9 11.9 0 0112-11.86z"/><path class="cls-7" d="M555.06 249.48a10.07 10.07 0 002.93 7.17 9.94 9.94 0 007.41 3.16v1.59a11.93 11.93 0 1111.92-11.92zm20.56-1.6a10.53 10.53 0 00-10.22-8.71 10.36 10.36 0 00-10.22 8.71z"/><path class="cls-7" d="M553.29 273.35a11.94 11.94 0 1111.92 11.91v-1.58a10 10 0 007.41-3.17 10.07 10.07 0 002.93-7.16zm22.14-1.63a10.27 10.27 0 00-16.87-6.21 9.76 9.76 0 00-3.56 6.21z"/><path class="cls-7" d="M554.57 273.33a11.88 11.88 0 0112 11.86h-22.08a10.09 10.09 0 002.79 7 9.39 9.39 0 007.49 3.27v1.58a11.75 11.75 0 01-8-3.15c-2.75-2.49-4.05-5.95-3.9-10.33H565a10.42 10.42 0 00-10.4-8.67z"/><path class="cls-7" d="M565.35 286.72a10.42 10.42 0 00-10.4 8.67h22.14c.15 4.38-1.15 7.84-3.9 10.32a11.69 11.69 0 01-8 3.16v-1.58a9.39 9.39 0 007.49-3.27 10.09 10.09 0 002.79-7H553.3a11.9 11.9 0 0112.05-11.86zM542.85 261.59a10.06 10.06 0 00-7.17 2.93 9.93 9.93 0 00-3.17 7.4h-1.58a11.92 11.92 0 1111.92 11.92zm1.6 20.54a9.81 9.81 0 006.22-3.56 9.93 9.93 0 002.49-6.65 10.34 10.34 0 00-8.71-10.21zM577.23 248.05a10.4 10.4 0 008.67 10.4v-22.14c4.37-.16 7.83 1.14 10.31 3.9a11.67 11.67 0 013.15 8h-1.57a9.39 9.39 0 00-3.27-7.49 10.09 10.09 0 00-7-2.79v22.14a11.92 11.92 0 01-11.86-12.06z"/><path class="cls-7" d="M589 261.44a10.06 10.06 0 002.93 7.17 10 10 0 007.41 3.17v1.58a11.92 11.92 0 1111.94-11.92zm20.58-1.6a9.8 9.8 0 00-3.58-6.22 10 10 0 00-6.66-2.49 10.36 10.36 0 00-10.22 8.71zM566.83 285a10.42 10.42 0 008.67 10.41v-22.18c4.37-.15 7.84 1.15 10.32 3.9a11.7 11.7 0 013.15 8h-1.57a9.42 9.42 0 00-3.27-7.48 10.07 10.07 0 00-7-2.8V297a11.9 11.9 0 01-11.87-12zM565.2 167.84a10.42 10.42 0 00-10.4 8.67h22.14c.16 4.37-1.14 7.84-3.9 10.32a11.67 11.67 0 01-8 3.15v-1.57a9.42 9.42 0 007.49-3.27 10.12 10.12 0 002.8-7h-22.18a11.88 11.88 0 0112.05-11.85z"/><path class="cls-7" d="M543.09 166.21a10.05 10.05 0 002.93 7.16 9.93 9.93 0 007.4 3.17v1.59a11.94 11.94 0 1111.92-11.92zm20.55-1.61a10.53 10.53 0 00-10.22-8.71 10.36 10.36 0 00-10.22 8.71z"/><path class="cls-7" d="M541.32 190.06A11.92 11.92 0 11553.24 202v-1.6a10.41 10.41 0 0010.33-10.34zm22.13-1.62a10.28 10.28 0 00-16.87-6.22 9.81 9.81 0 00-3.56 6.22z"/><path class="cls-7" d="M542.59 190.05a11.9 11.9 0 0112.06 11.85h-22.14a10.09 10.09 0 002.79 7 9.41 9.41 0 007.49 3.27v1.58a11.7 11.7 0 01-8-3.15c-2.75-2.48-4-6-3.9-10.33H553a10.4 10.4 0 00-10.4-8.66z"/><path class="cls-7" d="M553.37 203.44A10.42 10.42 0 00543 212.1h22.14c.16 4.38-1.14 7.84-3.9 10.33a11.71 11.71 0 01-8 3.15V224a9.39 9.39 0 007.48-3.27 10.08 10.08 0 002.8-7h-22.2a11.9 11.9 0 0112-11.86zM530.87 178.3a10.06 10.06 0 00-7.17 2.93 10 10 0 00-3.17 7.41h-1.58a11.92 11.92 0 1111.92 11.92zm1.6 20.55a9.81 9.81 0 006.22-3.56 10 10 0 002.49-6.65 10.36 10.36 0 00-8.71-10.22zM565.25 164.77a10.42 10.42 0 008.67 10.4V153c4.37-.16 7.84 1.14 10.32 3.9a11.66 11.66 0 013.15 8h-1.58a9.39 9.39 0 00-3.27-7.48 10.07 10.07 0 00-7-2.79v22.13a11.88 11.88 0 01-11.85-12z"/><path class="cls-7" d="M577 178.16a10.07 10.07 0 002.93 7.17 9.93 9.93 0 007.4 3.17v1.58a11.93 11.93 0 1111.92-11.92zm20.55-1.6a9.78 9.78 0 00-3.57-6.22 9.93 9.93 0 00-6.65-2.49 10.07 10.07 0 00-6.73 2.49 9.94 9.94 0 00-3.48 6.22zM554.86 201.69a10.42 10.42 0 008.66 10.4V190c4.37-.16 7.84 1.14 10.32 3.9a11.68 11.68 0 013.16 8h-1.58a9.39 9.39 0 00-3.27-7.49 10.1 10.1 0 00-7-2.8v22.14a11.9 11.9 0 01-11.86-12.05z"/></g></g><text class="cls-8" transform="translate(330.87 246.12)"><tspan class="cls-9">7</tspan><tspan class="cls-10" x="4.92" y="0">3</tspan><tspan class="cls-11" x="10.44" y="0">6</tspan><tspan x="16.29" y="0">7 </tspan><tspan class="cls-12" x="23.57" y="0">S</tspan><tspan x="30.06" y="0">W </tspan><tspan class="cls-13" x="41.8" y="0">B</tspan><tspan class="cls-14" x="48.8" y="0">r</tspan><tspan class="cls-15" x="52.71" y="0">i</tspan><tspan class="cls-16" x="55.78" y="0">d</tspan><tspan class="cls-17" x="61.3" y="0">g</tspan><tspan class="cls-11" x="66.36" y="0">e</tspan><tspan class="cls-18" x="71.52" y="0">p</tspan><tspan class="cls-19" x="76.9" y="0">o</tspan><tspan class="cls-20" x="82.14" y="0">r</tspan><tspan x="85.84" y="0">t </tspan><tspan class="cls-21" x="91.77" y="0">R</tspan><tspan x="99.03" y="0">d</tspan><tspan class="cls-20" x="0" y="16">P</tspan><tspan class="cls-19" x="6.84" y="16">o</tspan><tspan class="cls-20" x="12.08" y="16">r</tspan><tspan class="cls-21" x="15.78" y="16">t</tspan><tspan class="cls-22" x="19.28" y="16">l</tspan><tspan class="cls-23" x="22.42" y="16">a</tspan><tspan class="cls-19" x="27.92" y="16">n</tspan><tspan class="cls-9" x="33.65" y="16">d</tspan><tspan x="39.22" y="16">, </tspan><tspan class="cls-24" x="44.64" y="16">O</tspan><tspan x="51.12" y="16">R </tspan><tspan class="cls-16" x="60.81" y="16">9</tspan><tspan class="cls-20" x="66.66" y="16">7</tspan><tspan class="cls-25" x="71.58" y="16">2</tspan><tspan class="cls-26" x="77.31" y="16">2</tspan><tspan x="82.76" y="16">4</tspan><tspan class="cls-27" x="0" y="32">5</tspan><tspan class="cls-18" x="5.48" y="32">0</tspan><tspan class="cls-28" x="11.21" y="32">3</tspan><tspan class="cls-29" x="16.7" y="32">.</tspan><tspan class="cls-25" x="19.5" y="32">3</tspan><tspan class="cls-20" x="25.3" y="32">7</tspan><tspan class="cls-30" x="30.22" y="32">2</tspan><tspan class="cls-29" x="35.88" y="32">.</tspan><tspan class="cls-27" x="38.69" y="32">5</tspan><tspan class="cls-31" x="44.17" y="32">0</tspan><tspan class="cls-32" x="50.05" y="32">1</tspan><tspan x="54.16" y="32">3</tspan><tspan class="cls-33"><tspan x="0" y="62">ww</tspan><tspan class="cls-34" x="14.58" y="62">w</tspan><tspan class="cls-35" x="21.47" y="62">.</tspan><tspan class="cls-36" x="24.42" y="62">e</tspan><tspan class="cls-37" x="29.71" y="62">y</tspan><tspan class="cls-38" x="34.9" y="62">e</tspan><tspan class="cls-39" x="40.23" y="62">s</tspan><tspan class="cls-40" x="45.07" y="62">t</tspan><tspan class="cls-39" x="49.02" y="62">y</tspan><tspan class="cls-41" x="54.24" y="62">l</tspan><tspan class="cls-38" x="57.49" y="62">e</tspan><tspan class="cls-42" x="62.82" y="62">s</tspan><tspan class="cls-43" x="67.63" y="62">l</tspan><tspan class="cls-41" x="70.8" y="62">l</tspan><tspan class="cls-44" x="74.05" y="62">c</tspan><tspan class="cls-35" x="79.11" y="62">.</tspan><tspan class="cls-45" x="82.06" y="62">c</tspan><tspan class="cls-46" x="87.15" y="62">o</tspan><tspan class="cls-37" x="92.3" y="62">m</tspan></tspan></text><path class="cls-47" d="M330.84 133.86h253.99v83.88H330.84z"/><text class="cls-48" transform="translate(342.51 160.61)"><tspan class="cls-49">L</tspan><tspan class="cls-50" x="9.77" y="0">o</tspan><tspan class="cls-51" x="18.35" y="0">c</tspan><tspan class="cls-52" x="26.73" y="0">a</tspan><tspan class="cls-53" x="35.31" y="0">t</tspan><tspan class="cls-54" x="41.63" y="0">e</tspan><tspan x="50.22" y="0">d </tspan><tspan class="cls-55" x="63.62" y="0">a</tspan><tspan class="cls-56" x="72.3" y="0">c</tspan><tspan class="cls-57" x="80.56" y="0">r</tspan><tspan class="cls-58" x="86.9" y="0">o</tspan><tspan class="cls-59" x="95.65" y="0">s</tspan><tspan x="103.92" y="0">s </tspan><tspan class="cls-60" x="116.32" y="0">f</tspan><tspan class="cls-61" x="122.65" y="0">r</tspan><tspan class="cls-52" x="128.99" y="0">o</tspan><tspan x="137.46" y="0">m</tspan><tspan class="cls-62" x="0" y="22">U</tspan><tspan class="cls-63" x="10.94" y="22">r</tspan><tspan class="cls-54" x="17.14" y="22">b</tspan><tspan class="cls-64" x="26.06" y="22">a</tspan><tspan x="34.62" y="22">n </tspan><tspan class="cls-65" x="48.13" y="22">O</tspan><tspan class="cls-66" x="58.81" y="22">u</tspan><tspan class="cls-67" x="67.51" y="22">t</tspan><tspan class="cls-68" x="73.7" y="22">f</tspan><tspan class="cls-50" x="80.02" y="22">i</tspan><tspan class="cls-69" x="85.37" y="22">t</tspan><tspan class="cls-53" x="91.62" y="22">t</tspan><tspan class="cls-70" x="97.95" y="22">e</tspan><tspan class="cls-71" x="106.42" y="22">r</tspan><tspan x="112.93" y="22">s </tspan><tspan class="cls-64" x="0" y="44">a</tspan><tspan class="cls-55" x="8.56" y="44">n</tspan><tspan x="17.56" y="44">d </tspan><tspan class="cls-72" x="30.96" y="44">R</tspan><tspan class="cls-73" x="41.7" y="44">e</tspan><tspan class="cls-74" x="50.34" y="44">g</tspan><tspan class="cls-75" x="59.08" y="44">a</tspan><tspan x="67.62" y="44">l </tspan><tspan class="cls-76" x="77.47" y="44">C</tspan><tspan class="cls-77" x="87.91" y="44">im</tspan><tspan class="cls-78" x="106.41" y="44">e</tspan><tspan class="cls-79" x="114.85" y="44">n</tspan><tspan class="cls-56" x="123.82" y="44">a</tspan><tspan x="132.63" y="44">s</tspan></text></g><g id="Layer_5" data-name="Layer 5"><text class="cls-2" transform="translate(165.21 493.85)"><tspan class="cls-3">,</tspan><tspan x="5.01" y="0">L</tspan><tspan class="cls-4" x="12.34" y="0">L</tspan><tspan x="18.46" y="0">C</tspan></text><g id="logo-4" data-name="logo"><path class="cls-5" d="M42.81 468.05A11.85 11.85 0 0031 477.9h25.16c.18 5-1.3 8.92-4.44 11.74a13.3 13.3 0 01-9.14 3.58v-1.79a10.68 10.68 0 008.52-3.72 11.48 11.48 0 003.18-8H29.1a13.52 13.52 0 0113.71-13.48zM95.05 492.33v-5.83a11.82 11.82 0 01-4.12 4.44 13.47 13.47 0 01-21.06-11.16v-13h1.8v13a11.68 11.68 0 0019.93 8.29 11.34 11.34 0 003.45-8.29v-13h1.79v25.44a9.88 9.88 0 01-2.37 6.78 13.82 13.82 0 01-5.28 3.36v-1.79c3.89-1.75 5.86-4.57 5.86-8.24zM103.46 486.46a4.5 4.5 0 001.12 2.87 4.57 4.57 0 003.86 1.61v1.79a6.29 6.29 0 01-5.47-2.55 6.47 6.47 0 01-1.29-3.72v-29.25h1.78zM110 479.72a11.4 11.4 0 003.31 8.11 11.27 11.27 0 008.38 3.58v1.79a13.49 13.49 0 1113.48-13.48zm23.25-1.82a11.11 11.11 0 00-4-7 11.67 11.67 0 00-19.09 7zM151.87 468.05A11.85 11.85 0 00140 477.9h25.18c.18 5-1.3 8.92-4.44 11.74a13.28 13.28 0 01-9.13 3.58v-1.79a10.67 10.67 0 008.51-3.72 11.48 11.48 0 003.18-8h-25.14a13.54 13.54 0 0113.71-13.48zM31 445.48a11.39 11.39 0 003.31 8.1 11.25 11.25 0 008.38 3.59V459a13.48 13.48 0 110-27 13.45 13.45 0 0113.43 13.5zm23.25-1.81a11.08 11.08 0 00-4-7 11.22 11.22 0 00-7.52-2.82 11.71 11.71 0 00-11.56 9.86z"/><path class="cls-5" d="M75.1 468.54H61.26v18a4.47 4.47 0 001.11 2.87 4.54 4.54 0 003.85 1.59v1.79a6.28 6.28 0 01-5.46-2.55 6.46 6.46 0 01-1.3-3.72v-23.8h1.8v4H75a13 13 0 004.13-.62 8.66 8.66 0 005.52-8.05v-5.82a11.9 11.9 0 01-4.12 4.44 13.13 13.13 0 01-7.6 2.33 13.49 13.49 0 01-13.48-13.48v-13h1.8v13a11.69 11.69 0 0019.93 8.28 11.37 11.37 0 003.45-8.28v-13h1.79V458a10.06 10.06 0 01-2.37 6.81 13.25 13.25 0 01-4.47 3.05 15.05 15.05 0 01-4.51.68zM91.58 445.48a11.36 11.36 0 003.32 8.1 11.21 11.21 0 008.37 3.59V459a13.49 13.49 0 1113.48-13.48zm23.24-1.81a11.06 11.06 0 00-4-7 11.22 11.22 0 00-7.52-2.82 11.36 11.36 0 00-7.61 2.82 11.22 11.22 0 00-3.94 7z"/></g><g class="cls-81" id="pattern_bottom-5" data-name="pattern bottom"><g id="pattern_bottom-6" data-name="pattern bottom"><path class="cls-7" d="M196.92 664.58a10.4 10.4 0 00-10.4 8.67h22.14c.15 4.37-1.15 7.84-3.91 10.32a11.66 11.66 0 01-8 3.15v-1.58a9.38 9.38 0 007.48-3.26 10.07 10.07 0 002.8-7h-22.17A11.92 11.92 0 01196.92 663z"/><path class="cls-7" d="M174.8 662.94a10.06 10.06 0 002.93 7.17 9.93 9.93 0 007.4 3.17v1.59A11.94 11.94 0 11197.05 663zm20.55-1.6a9.81 9.81 0 00-3.56-6.22 10 10 0 00-6.66-2.5 10.08 10.08 0 00-6.73 2.5 9.94 9.94 0 00-3.48 6.22z"/><path class="cls-7" d="M173 686.8a11.93 11.93 0 1112 11.92v-1.58a9.93 9.93 0 007.4-3.17 10.07 10.07 0 002.93-7.17zm22.14-1.62a10.36 10.36 0 00-10.14-8.71 10.53 10.53 0 00-10.22 8.71z"/><path class="cls-7" d="M174.31 686.79a11.9 11.9 0 0112.05 11.85h-22.14a10.14 10.14 0 002.8 7 9.41 9.41 0 007.48 3.26v1.58a11.66 11.66 0 01-8-3.15c-2.76-2.48-4.06-6-3.9-10.32h22.14a10.42 10.42 0 00-10.4-8.67z"/><path class="cls-7" d="M185.09 700.18a10.4 10.4 0 00-10.4 8.67h22.13c.16 4.37-1.14 7.84-3.9 10.32a11.71 11.71 0 01-8 3.15v-1.58a9.39 9.39 0 007.48-3.27 10.1 10.1 0 002.8-7H173a11.92 11.92 0 0112.06-11.86zM162.58 675a10.41 10.41 0 00-10.33 10.34h-1.58a11.92 11.92 0 1111.91 11.91zm1.6 20.55a9.76 9.76 0 006.22-3.55 9.94 9.94 0 002.5-6.65 10.38 10.38 0 00-8.72-10.22zM197 661.5a10.4 10.4 0 008.66 10.41v-22.14c4.38-.16 7.84 1.14 10.32 3.9a11.66 11.66 0 013.15 8h-1.57a9.42 9.42 0 00-3.27-7.48 10.1 10.1 0 00-7-2.8v22.15a11.92 11.92 0 01-11.86-12.07z"/><path class="cls-7" d="M208.75 674.9a10.07 10.07 0 002.93 7.17 10 10 0 007.41 3.17v1.58a11.93 11.93 0 1111.91-11.9zm20.55-1.6a9.76 9.76 0 00-3.56-6.22 10 10 0 00-6.65-2.5 10.11 10.11 0 00-6.74 2.5 10 10 0 00-3.48 6.22zM186.57 698.43a10.42 10.42 0 008.67 10.4v-22.14c4.37-.16 7.84 1.14 10.32 3.9a11.7 11.7 0 013.15 8h-1.58a9.39 9.39 0 00-3.27-7.49 10.07 10.07 0 00-7-2.79v22.14A11.9 11.9 0 01185 698.43zM241.55 688.63a10.42 10.42 0 00-10.4 8.67h22.14c.15 4.37-1.15 7.84-3.9 10.32a11.7 11.7 0 01-8 3.15v-1.57a9.4 9.4 0 007.48-3.27 10.07 10.07 0 002.8-7h-22.18a11.9 11.9 0 0112.06-11.86z"/><path class="cls-7" d="M219.43 687a10.05 10.05 0 002.93 7.16 9.93 9.93 0 007.4 3.17v1.59A11.94 11.94 0 11241.68 687zm20.55-1.6a10.51 10.51 0 00-10.22-8.71 10.34 10.34 0 00-10.21 8.71z"/><path class="cls-7" d="M217.66 710.85a11.94 11.94 0 1111.92 11.92v-1.58A9.91 9.91 0 00237 718a10 10 0 002.94-7.17h-22.28zm22.14-1.62a10.36 10.36 0 00-10.22-8.71 9.93 9.93 0 00-6.65 2.49 9.83 9.83 0 00-3.57 6.22z"/><path class="cls-7" d="M218.94 710.84A11.9 11.9 0 01231 722.69h-22.15a10.12 10.12 0 002.8 7 9.41 9.41 0 007.48 3.26v1.58a11.66 11.66 0 01-8-3.15c-2.76-2.48-4.06-5.95-3.9-10.32h22.14a10.42 10.42 0 00-10.4-8.67z"/><path class="cls-7" d="M229.72 724.23a10.4 10.4 0 00-10.4 8.67h22.13c.16 4.37-1.14 7.84-3.9 10.32a11.66 11.66 0 01-8 3.15v-1.58a9.39 9.39 0 007.48-3.27 10.07 10.07 0 002.8-7h-22.17a11.9 11.9 0 0112.06-11.86zM207.21 699.09A10.07 10.07 0 00200 702a10 10 0 00-3.17 7.41h-1.58a11.93 11.93 0 1111.92 11.92zm1.6 20.55a9.81 9.81 0 006.22-3.56 10 10 0 002.5-6.65 10.38 10.38 0 00-8.72-10.22zM241.6 685.56a10.42 10.42 0 008.66 10.4v-22.14c4.37-.15 7.84 1.14 10.32 3.9a11.67 11.67 0 013.15 8h-1.57a9.42 9.42 0 00-3.27-7.49 10.1 10.1 0 00-7-2.8v22.15A11.92 11.92 0 01240 685.56z"/><path class="cls-7" d="M253.38 699a10.07 10.07 0 002.93 7.17 10 10 0 007.41 3.17v1.58A11.92 11.92 0 11275.64 699zm20.56-1.6a9.82 9.82 0 00-3.57-6.22 10 10 0 00-6.65-2.49 10.36 10.36 0 00-10.22 8.71zM231.2 722.48a10.42 10.42 0 008.67 10.4v-22.14c4.37-.15 7.84 1.15 10.32 3.9a11.67 11.67 0 013.15 8h-1.58a9.37 9.37 0 00-3.27-7.48 10 10 0 00-7-2.8v22.13a11.88 11.88 0 01-11.85-12zM229.44 605.63A10.44 10.44 0 00219 614.3h22.14c.16 4.38-1.14 7.84-3.9 10.32a11.68 11.68 0 01-8 3.15v-1.57a9.42 9.42 0 007.49-3.27 10.09 10.09 0 002.79-7h-22.13a11.9 11.9 0 0112.05-11.86z"/><path class="cls-7" d="M207.32 604a10.07 10.07 0 002.93 7.17 10 10 0 007.41 3.17v1.58A11.93 11.93 0 11229.58 604zm20.56-1.6a10.55 10.55 0 00-10.22-8.71 10.38 10.38 0 00-10.22 8.71z"/><path class="cls-7" d="M205.55 627.86a11.94 11.94 0 1111.92 11.91v-1.58a10.41 10.41 0 0010.34-10.33zm22.14-1.63a10.27 10.27 0 00-16.87-6.23 9.76 9.76 0 00-3.56 6.21z"/><path class="cls-7" d="M206.83 627.85a11.87 11.87 0 0112 11.85h-22.08a10.1 10.1 0 002.79 7A9.42 9.42 0 00207 650v1.57a11.68 11.68 0 01-8-3.15c-2.76-2.48-4.06-5.95-3.9-10.32h22.14a10.42 10.42 0 00-10.4-8.67z"/><path class="cls-7" d="M217.61 641.23a10.42 10.42 0 00-10.4 8.67h22.14c.16 4.37-1.14 7.84-3.9 10.32a11.7 11.7 0 01-8 3.15v-1.58a9.38 9.38 0 007.49-3.26 10.1 10.1 0 002.79-7h-22.18a11.9 11.9 0 0112.06-11.86zM195.1 616.1a10.09 10.09 0 00-7.17 2.93 10 10 0 00-3.16 7.4h-1.59a11.93 11.93 0 1111.92 11.92zm1.61 20.55a10.55 10.55 0 008.71-10.22 10.38 10.38 0 00-8.71-10.22zM229.49 602.56a10.4 10.4 0 008.67 10.4v-22.14c4.37-.16 7.83 1.14 10.32 3.9a11.7 11.7 0 013.14 8h-1.57a9.39 9.39 0 00-3.27-7.49 10.1 10.1 0 00-7-2.8v22.15a11.92 11.92 0 01-11.86-12.06z"/><path class="cls-7" d="M241.28 616a10.05 10.05 0 002.93 7.16 9.93 9.93 0 007.4 3.17v1.58A11.93 11.93 0 11263.53 616zm20.55-1.61a9.86 9.86 0 00-3.56-6.22 10 10 0 00-6.66-2.49 10.34 10.34 0 00-10.21 8.71zM219.1 639.48a10.38 10.38 0 008.66 10.4v-22.14c4.37-.15 7.84 1.15 10.32 3.9a11.7 11.7 0 013.15 8h-1.57a9.42 9.42 0 00-3.27-7.48 10.11 10.11 0 00-7-2.8v22.14a11.92 11.92 0 01-11.86-12.06zM274.13 629.6a10.42 10.42 0 00-10.4 8.67h22.14c.16 4.37-1.14 7.84-3.9 10.32a11.67 11.67 0 01-8 3.15v-1.58a9.36 9.36 0 007.49-3.27 10.08 10.08 0 002.8-7h-22.18A11.9 11.9 0 01274.13 628z"/><path class="cls-7" d="M252 628a10.09 10.09 0 002.92 7.17 10 10 0 007.41 3.17v1.58A11.93 11.93 0 11274.27 628zm20.55-1.6a9.82 9.82 0 00-3.57-6.22 10 10 0 00-6.65-2.49 10.36 10.36 0 00-10.22 8.71z"/><path class="cls-7" d="M250.25 651.82a11.92 11.92 0 1111.91 11.92v-1.59a9.93 9.93 0 007.41-3.16 10.07 10.07 0 002.93-7.17zm22.13-1.62a10.28 10.28 0 00-16.87-6.2 9.81 9.81 0 00-3.51 6.2z"/><path class="cls-7" d="M251.52 651.81a11.9 11.9 0 0112.06 11.85h-22.14a10.08 10.08 0 002.8 7 9.4 9.4 0 007.48 3.27v1.57a11.7 11.7 0 01-8-3.15c-2.75-2.48-4.05-6-3.9-10.33h22.14a10.42 10.42 0 00-10.4-8.66z"/><path class="cls-7" d="M262.3 665.2a10.42 10.42 0 00-10.4 8.67H274c.16 4.37-1.14 7.84-3.9 10.32a11.67 11.67 0 01-8 3.15v-1.57a9.42 9.42 0 007.49-3.27 10.12 10.12 0 002.8-7h-22.14a11.9 11.9 0 0112.05-11.86zM239.8 640.06a10.07 10.07 0 00-7.17 2.93 10 10 0 00-3.17 7.41h-1.58a11.93 11.93 0 1111.92 11.91zm1.6 20.55a10.51 10.51 0 008.71-10.21 10.36 10.36 0 00-8.71-10.22zM274.18 626.53a10.42 10.42 0 008.67 10.4v-22.14c4.37-.16 7.83 1.14 10.32 3.9a11.7 11.7 0 013.14 8h-1.57a9.39 9.39 0 00-3.27-7.48 10.1 10.1 0 00-7-2.8v22.14a11.88 11.88 0 01-11.85-12.05z"/><path class="cls-7" d="M286 639.92a10 10 0 002.93 7.17 9.91 9.91 0 007.4 3.17v1.58a11.91 11.91 0 1111.95-11.92zm20.58-1.6a9.8 9.8 0 00-3.58-6.22 10 10 0 00-6.66-2.5 10.38 10.38 0 00-10.22 8.72zM263.79 663.45a10.4 10.4 0 008.66 10.4v-22.14c4.37-.16 7.84 1.14 10.32 3.9a11.67 11.67 0 013.15 8h-1.57a9.42 9.42 0 00-3.27-7.49 10.09 10.09 0 00-7-2.79v22.14a11.92 11.92 0 01-11.86-12.06zM262.15 546.32a10.4 10.4 0 00-10.39 8.68h22.13c.16 4.38-1.14 7.84-3.9 10.32a11.67 11.67 0 01-8 3.16v-1.58a9.39 9.39 0 007.48-3.27 10.1 10.1 0 002.8-7H250.1a11.9 11.9 0 0112-11.86z"/><path class="cls-7" d="M240 544.68a10.07 10.07 0 002.93 7.17 9.93 9.93 0 007.4 3.17v1.58a11.93 11.93 0 1111.92-11.92zm20.55-1.6a9.82 9.82 0 00-3.57-6.22 9.93 9.93 0 00-6.65-2.49 10.36 10.36 0 00-10.22 8.71z"/><path class="cls-7" d="M238.27 568.54a11.92 11.92 0 1111.92 11.92v-1.59a9.93 9.93 0 007.4-3.17 10.05 10.05 0 002.93-7.16zm22.13-1.62a9.94 9.94 0 00-3.48-6.22 10.07 10.07 0 00-6.73-2.49 10 10 0 00-6.66 2.49 9.81 9.81 0 00-3.56 6.22z"/><path class="cls-7" d="M239.54 568.53a11.9 11.9 0 0112.06 11.85h-22.14a10.1 10.1 0 002.8 7 9.39 9.39 0 007.48 3.27v1.57a11.66 11.66 0 01-8-3.15c-2.76-2.48-4.06-6-3.9-10.32h22.13a10.4 10.4 0 00-10.4-8.66z"/><path class="cls-7" d="M250.32 581.92a10.42 10.42 0 00-10.4 8.66h22.14c.16 4.38-1.14 7.84-3.9 10.32a11.66 11.66 0 01-8 3.15v-1.57a9.39 9.39 0 007.48-3.27 10.1 10.1 0 002.8-7h-22.17a11.9 11.9 0 0112-11.86zM227.82 556.78a10.07 10.07 0 00-7.17 2.93 9.94 9.94 0 00-3.17 7.41h-1.58A11.92 11.92 0 11227.8 579zm1.6 20.55a10.53 10.53 0 008.71-10.21 10.08 10.08 0 00-2.49-6.74 10 10 0 00-6.22-3.48zM262.2 543.25a10.42 10.42 0 008.67 10.4v-22.14c4.37-.16 7.84 1.14 10.32 3.9a11.66 11.66 0 013.15 8h-1.57a9.42 9.42 0 00-3.27-7.41 10.11 10.11 0 00-7-2.8v22.1a11.9 11.9 0 01-11.86-12z"/><path class="cls-7" d="M274 556.64a10.07 10.07 0 002.93 7.17 10 10 0 007.4 3.16v1.59a11.94 11.94 0 1111.92-11.92zm20.55-1.6a9.81 9.81 0 00-3.56-6.22 9.91 9.91 0 00-6.66-2.5 10.36 10.36 0 00-10.22 8.68zM251.81 580.17a10.42 10.42 0 008.67 10.4v-22.14c4.37-.16 7.83 1.14 10.32 3.9a11.71 11.71 0 013.15 8h-1.58a9.39 9.39 0 00-3.27-7.48 10.1 10.1 0 00-7-2.8v22.14a11.92 11.92 0 01-11.86-12.05z"/></g></g><text class="cls-8" transform="translate(27.82 624.61)"><tspan class="cls-9">7</tspan><tspan class="cls-10" x="4.92" y="0">3</tspan><tspan class="cls-11" x="10.44" y="0">6</tspan><tspan x="16.29" y="0">7 </tspan><tspan class="cls-12" x="23.57" y="0">S</tspan><tspan x="30.06" y="0">W </tspan><tspan class="cls-13" x="41.8" y="0">B</tspan><tspan class="cls-14" x="48.8" y="0">r</tspan><tspan class="cls-15" x="52.71" y="0">i</tspan><tspan class="cls-16" x="55.78" y="0">d</tspan><tspan class="cls-17" x="61.3" y="0">g</tspan><tspan class="cls-11" x="66.36" y="0">e</tspan><tspan class="cls-18" x="71.52" y="0">p</tspan><tspan class="cls-19" x="76.9" y="0">o</tspan><tspan class="cls-20" x="82.14" y="0">r</tspan><tspan x="85.84" y="0">t </tspan><tspan class="cls-21" x="91.77" y="0">R</tspan><tspan x="99.03" y="0">d</tspan><tspan class="cls-20" x="0" y="16">P</tspan><tspan class="cls-19" x="6.84" y="16">o</tspan><tspan class="cls-20" x="12.08" y="16">r</tspan><tspan class="cls-21" x="15.78" y="16">t</tspan><tspan class="cls-22" x="19.28" y="16">l</tspan><tspan class="cls-23" x="22.42" y="16">a</tspan><tspan class="cls-19" x="27.92" y="16">n</tspan><tspan class="cls-9" x="33.65" y="16">d</tspan><tspan x="39.22" y="16">, </tspan><tspan class="cls-24" x="44.64" y="16">O</tspan><tspan x="51.12" y="16">R </tspan><tspan class="cls-16" x="60.81" y="16">9</tspan><tspan class="cls-20" x="66.66" y="16">7</tspan><tspan class="cls-25" x="71.58" y="16">2</tspan><tspan class="cls-26" x="77.31" y="16">2</tspan><tspan x="82.76" y="16">4</tspan><tspan class="cls-27" x="0" y="32">5</tspan><tspan class="cls-18" x="5.48" y="32">0</tspan><tspan class="cls-28" x="11.21" y="32">3</tspan><tspan class="cls-29" x="16.7" y="32">.</tspan><tspan class="cls-25" x="19.5" y="32">3</tspan><tspan class="cls-20" x="25.3" y="32">7</tspan><tspan class="cls-30" x="30.22" y="32">2</tspan><tspan class="cls-29" x="35.88" y="32">.</tspan><tspan class="cls-27" x="38.69" y="32">5</tspan><tspan class="cls-31" x="44.17" y="32">0</tspan><tspan class="cls-32" x="50.05" y="32">1</tspan><tspan x="54.16" y="32">3</tspan><tspan class="cls-33"><tspan x="0" y="62">ww</tspan><tspan class="cls-34" x="14.58" y="62">w</tspan><tspan class="cls-35" x="21.47" y="62">.</tspan><tspan class="cls-36" x="24.42" y="62">e</tspan><tspan class="cls-37" x="29.71" y="62">y</tspan><tspan class="cls-38" x="34.9" y="62">e</tspan><tspan class="cls-39" x="40.23" y="62">s</tspan><tspan class="cls-40" x="45.07" y="62">t</tspan><tspan class="cls-39" x="49.02" y="62">y</tspan><tspan class="cls-41" x="54.24" y="62">l</tspan><tspan class="cls-38" x="57.49" y="62">e</tspan><tspan class="cls-42" x="62.82" y="62">s</tspan><tspan class="cls-43" x="67.63" y="62">l</tspan><tspan class="cls-41" x="70.8" y="62">l</tspan><tspan class="cls-44" x="74.05" y="62">c</tspan><tspan class="cls-35" x="79.11" y="62">.</tspan><tspan class="cls-45" x="82.06" y="62">c</tspan><tspan class="cls-46" x="87.15" y="62">o</tspan><tspan class="cls-37" x="92.3" y="62">m</tspan></tspan></text><path class="cls-47" d="M27.79 512.34h253.99v83.87H27.79z"/><text class="cls-48" transform="translate(39.46 539.09)"><tspan class="cls-49">L</tspan><tspan class="cls-50" x="9.77" y="0">o</tspan><tspan class="cls-51" x="18.35" y="0">c</tspan><tspan class="cls-52" x="26.73" y="0">a</tspan><tspan class="cls-53" x="35.31" y="0">t</tspan><tspan class="cls-54" x="41.63" y="0">e</tspan><tspan x="50.22" y="0">d </tspan><tspan class="cls-55" x="63.62" y="0">a</tspan><tspan class="cls-56" x="72.3" y="0">c</tspan><tspan class="cls-57" x="80.56" y="0">r</tspan><tspan class="cls-58" x="86.9" y="0">o</tspan><tspan class="cls-59" x="95.65" y="0">s</tspan><tspan x="103.92" y="0">s </tspan><tspan class="cls-60" x="116.32" y="0">f</tspan><tspan class="cls-61" x="122.65" y="0">r</tspan><tspan class="cls-52" x="128.99" y="0">o</tspan><tspan x="137.46" y="0">m</tspan><tspan class="cls-62" x="0" y="22">U</tspan><tspan class="cls-63" x="10.94" y="22">r</tspan><tspan class="cls-54" x="17.14" y="22">b</tspan><tspan class="cls-64" x="26.06" y="22">a</tspan><tspan x="34.62" y="22">n </tspan><tspan class="cls-65" x="48.13" y="22">O</tspan><tspan class="cls-66" x="58.81" y="22">u</tspan><tspan class="cls-67" x="67.51" y="22">t</tspan><tspan class="cls-68" x="73.7" y="22">f</tspan><tspan class="cls-50" x="80.02" y="22">i</tspan><tspan class="cls-69" x="85.37" y="22">t</tspan><tspan class="cls-53" x="91.62" y="22">t</tspan><tspan class="cls-70" x="97.95" y="22">e</tspan><tspan class="cls-71" x="106.42" y="22">r</tspan><tspan x="112.93" y="22">s </tspan><tspan class="cls-64" x="0" y="44">a</tspan><tspan class="cls-55" x="8.56" y="44">n</tspan><tspan x="17.56" y="44">d </tspan><tspan class="cls-72" x="30.96" y="44">R</tspan><tspan class="cls-73" x="41.7" y="44">e</tspan><tspan class="cls-74" x="50.34" y="44">g</tspan><tspan class="cls-75" x="59.08" y="44">a</tspan><tspan x="67.62" y="44">l </tspan><tspan class="cls-76" x="77.47" y="44">C</tspan><tspan class="cls-77" x="87.91" y="44">im</tspan><tspan class="cls-78" x="106.41" y="44">e</tspan><tspan class="cls-79" x="114.85" y="44">n</tspan><tspan class="cls-56" x="123.82" y="44">a</tspan><tspan x="132.63" y="44">s</tspan></text></g><g id="Layer_6" data-name="Layer 6"><text class="cls-2" transform="translate(468.96 494.17)"><tspan class="cls-3">,</tspan><tspan x="5.01" y="0">L</tspan><tspan class="cls-4" x="12.34" y="0">L</tspan><tspan x="18.46" y="0">C</tspan></text><g id="logo-5" data-name="logo"><path class="cls-5" d="M346.56 468.37a11.84 11.84 0 00-11.83 9.86h25.18c.18 5-1.3 8.91-4.43 11.73a13.29 13.29 0 01-9.14 3.59v-1.79a10.73 10.73 0 008.51-3.72 11.46 11.46 0 003.18-8h-25.18a13.54 13.54 0 0113.71-13.48zM398.8 492.65v-5.82a11.8 11.8 0 01-4.12 4.43 13.47 13.47 0 01-21.05-11.15v-13h1.79v13a11.69 11.69 0 0023.38 0v-13h1.79v25.44a9.84 9.84 0 01-2.37 6.81 13.82 13.82 0 01-5.28 3.36v-1.79c3.89-1.79 5.86-4.56 5.86-8.28zM407.22 486.78a4.48 4.48 0 001.12 2.87 4.53 4.53 0 003.85 1.61v1.79a6.29 6.29 0 01-5.47-2.55 6.45 6.45 0 01-1.29-3.72v-29.25h1.79zM413.79 480a11.41 11.41 0 003.32 8.11 11.23 11.23 0 008.38 3.59v1.79A13.5 13.5 0 11439 480.06zm23.21-1.77a11.9 11.9 0 00-11.55-9.86 11.71 11.71 0 00-11.56 9.86zM455.62 468.37a11.84 11.84 0 00-11.82 9.86H469c.18 5-1.3 8.91-4.43 11.73a13.29 13.29 0 01-9.14 3.59v-1.79a10.73 10.73 0 008.51-3.72 11.46 11.46 0 003.18-8h-25.2a13.52 13.52 0 0113.7-13.48zM334.7 445.8a11.41 11.41 0 003.31 8.11 11.27 11.27 0 008.38 3.58v1.79a13.48 13.48 0 1113.49-13.48zM358 444a11.13 11.13 0 00-4-7 11.67 11.67 0 00-19.09 7z"/><path class="cls-5" d="M378.82 468.87H365v18a4.48 4.48 0 001.12 2.86 4.53 4.53 0 003.84 1.62v1.79a6.25 6.25 0 01-5.45-2.55 6.49 6.49 0 01-1.3-3.72V463H365v4h13.73a13.16 13.16 0 004.12-.61 8.68 8.68 0 005.52-8v-5.83a11.88 11.88 0 01-4.11 4.44 13.11 13.11 0 01-7.59 2.33 13.45 13.45 0 01-13.47-13.48v-13h1.8v13a11.69 11.69 0 0023.38 0v-13h1.79v25.44a10 10 0 01-2.37 6.81 13 13 0 01-4.47 3.05 14.73 14.73 0 01-4.51.72zM395.34 445.8a11.41 11.41 0 003.31 8.11 11.24 11.24 0 008.37 3.58v1.79a13.49 13.49 0 1113.48-13.48zm23.24-1.8a11.92 11.92 0 00-11.58-9.87 11.71 11.71 0 00-11.53 9.87z"/></g><g class="cls-82" id="pattern_bottom-7" data-name="pattern bottom"><g id="pattern_bottom-8" data-name="pattern bottom"><path class="cls-7" d="M500.67 664.91a10.42 10.42 0 00-10.4 8.67h22.14c.16 4.37-1.14 7.83-3.9 10.32a11.68 11.68 0 01-8 3.15v-1.58a9.38 9.38 0 007.49-3.26 10.11 10.11 0 002.79-7h-22.17a11.9 11.9 0 0112.05-11.86z"/><path class="cls-7" d="M478.55 663.27a10.07 10.07 0 002.93 7.17 10 10 0 007.41 3.17v1.58a11.93 11.93 0 1111.92-11.92zm20.56-1.6a9.82 9.82 0 00-3.57-6.22 10 10 0 00-6.65-2.5 10.38 10.38 0 00-10.22 8.72z"/><path class="cls-7" d="M476.78 687.13a11.93 11.93 0 1111.92 11.92v-1.59a10.39 10.39 0 0010.3-10.33zm22.14-1.62a10.28 10.28 0 00-16.87-6.22 9.76 9.76 0 00-3.56 6.22z"/><path class="cls-7" d="M478.06 687.12A11.9 11.9 0 01490.12 699H468a10.09 10.09 0 002.79 7 9.39 9.39 0 007.49 3.27v1.58a11.67 11.67 0 01-8-3.15c-2.76-2.49-4.06-5.95-3.9-10.32h22.14a10.42 10.42 0 00-10.4-8.67z"/><path class="cls-7" d="M488.84 700.51a10.42 10.42 0 00-10.4 8.66h22.14c.15 4.38-1.15 7.84-3.9 10.32a11.71 11.71 0 01-8 3.16v-1.58a9.41 9.41 0 007.49-3.27 10.09 10.09 0 002.79-7h-22.17a11.9 11.9 0 0112-11.86zM466.33 675.37a10.05 10.05 0 00-7.16 2.93 9.94 9.94 0 00-3.17 7.41h-1.6a11.93 11.93 0 1111.91 11.91zm1.61 20.55a9.86 9.86 0 006.22-3.56 10.31 10.31 0 00-6.22-16.87zM500.72 661.83a10.42 10.42 0 008.67 10.41v-22.15c4.37-.15 7.83 1.15 10.32 3.9a11.74 11.74 0 013.14 8h-1.57a9.41 9.41 0 00-3.27-7.49 10.13 10.13 0 00-7-2.79v22.14a11.92 11.92 0 01-11.86-12.06z"/><path class="cls-7" d="M512.5 675.23a10.12 10.12 0 002.93 7.17 10 10 0 007.41 3.17v1.58a11.94 11.94 0 1111.92-11.92zm20.56-1.6a10.53 10.53 0 00-10.22-8.72 10.38 10.38 0 00-10.22 8.72zM490.32 698.76a10.42 10.42 0 008.67 10.4V687c4.37-.16 7.84 1.14 10.32 3.9a11.67 11.67 0 013.15 8h-1.57a9.42 9.42 0 00-3.27-7.49 10.11 10.11 0 00-7-2.8v22.14a11.9 11.9 0 01-11.86-12zM545.3 689a10.42 10.42 0 00-10.4 8.67H557c.16 4.37-1.14 7.84-3.9 10.32a11.68 11.68 0 01-8 3.15v-1.58a9.41 9.41 0 007.49-3.26 10.13 10.13 0 002.79-7h-22.13a11.9 11.9 0 0112-11.86z"/><path class="cls-7" d="M523.18 687.32a10.06 10.06 0 002.93 7.17 10 10 0 007.41 3.17v1.58a11.92 11.92 0 1111.92-11.92zm20.56-1.6a10.53 10.53 0 00-10.22-8.72 10.36 10.36 0 00-10.22 8.71z"/><path class="cls-7" d="M521.41 711.18a11.94 11.94 0 1111.92 11.92v-1.58a10.41 10.41 0 0010.34-10.34zm22.14-1.62a10.34 10.34 0 00-10.22-8.71 10 10 0 00-6.65 2.49 9.76 9.76 0 00-3.56 6.22z"/><path class="cls-7" d="M522.69 711.17a11.88 11.88 0 0112 11.85h-22.08a10.13 10.13 0 002.79 7 9.41 9.41 0 007.49 3.26v1.58a11.73 11.73 0 01-8-3.15c-2.76-2.49-4.06-6-3.9-10.32h22.14a10.42 10.42 0 00-10.4-8.67z"/><path class="cls-7" d="M533.47 724.56a10.42 10.42 0 00-10.4 8.67h22.14c.16 4.37-1.14 7.83-3.9 10.32a11.73 11.73 0 01-8 3.15v-1.58a9.39 9.39 0 007.49-3.27 10.09 10.09 0 002.79-7h-22.17A11.9 11.9 0 01533.47 723zM511 699.42a10.41 10.41 0 00-10.33 10.34H499a11.94 11.94 0 1111.92 11.91zm1.57 20.58a9.81 9.81 0 006.21-3.56 10.31 10.31 0 00-6.21-16.87zM545.35 685.89a10.42 10.42 0 008.67 10.4v-22.14c4.37-.16 7.84 1.14 10.32 3.9a11.71 11.71 0 013.15 8h-1.58a9.39 9.39 0 00-3.27-7.49 10.1 10.1 0 00-7-2.8v22.14a11.9 11.9 0 01-11.86-12.05z"/><path class="cls-7" d="M557.14 699.28a10.07 10.07 0 002.93 7.17 9.94 9.94 0 007.4 3.16v1.59a11.93 11.93 0 1111.92-11.92zm20.55-1.6a9.78 9.78 0 00-3.57-6.22 9.94 9.94 0 00-6.65-2.5 10.38 10.38 0 00-10.22 8.72zM535 722.81a10.42 10.42 0 008.66 10.4v-22.14c4.37-.16 7.84 1.14 10.32 3.9a11.67 11.67 0 013.15 8h-1.57a9.42 9.42 0 00-3.27-7.49 10.1 10.1 0 00-7-2.79v22.13a11.9 11.9 0 01-11.86-12.05zM533.19 606a10.42 10.42 0 00-10.4 8.67h22.14c.16 4.37-1.14 7.84-3.9 10.32a11.66 11.66 0 01-8 3.15v-1.57a9.42 9.42 0 007.48-3.27 10.12 10.12 0 002.8-7h-22.17a11.92 11.92 0 0112.05-11.86z"/><path class="cls-7" d="M511.08 604.32a10.1 10.1 0 002.93 7.18 10 10 0 007.4 3.16v1.59a11.94 11.94 0 1111.92-11.93zm20.55-1.6a9.8 9.8 0 00-3.57-6.22 9.93 9.93 0 00-6.65-2.49 10.36 10.36 0 00-10.22 8.71z"/><path class="cls-7" d="M509.3 628.19a11.93 11.93 0 1111.93 11.91v-1.58a9.93 9.93 0 007.4-3.17 10.07 10.07 0 002.93-7.16zm22.14-1.63a10.28 10.28 0 00-16.87-6.22 9.86 9.86 0 00-3.56 6.22z"/><path class="cls-7" d="M510.58 628.17A11.9 11.9 0 01522.64 640H500.5a10.12 10.12 0 002.8 7 9.41 9.41 0 007.48 3.26v1.58a11.7 11.7 0 01-8-3.15c-2.75-2.48-4.05-6-3.9-10.32H521a10.4 10.4 0 00-10.4-8.67z"/><path class="cls-7" d="M521.36 641.56a10.42 10.42 0 00-10.4 8.67h22.14c.16 4.37-1.14 7.84-3.9 10.32a11.71 11.71 0 01-8 3.15v-1.58a9.39 9.39 0 007.48-3.27 10.08 10.08 0 002.8-7h-22.17A11.9 11.9 0 01521.36 640zM498.86 616.43a10.06 10.06 0 00-7.17 2.93 9.93 9.93 0 00-3.17 7.4h-1.58a11.92 11.92 0 1111.92 11.92zm1.6 20.54a9.79 9.79 0 006.22-3.56 9.93 9.93 0 002.49-6.65 10.36 10.36 0 00-8.71-10.22zM533.24 602.89a10.4 10.4 0 008.67 10.4v-22.14c4.37-.16 7.84 1.14 10.32 3.9a11.67 11.67 0 013.15 8h-1.57a9.42 9.42 0 00-3.27-7.49 10.11 10.11 0 00-7-2.8V615a11.9 11.9 0 01-11.86-12.06z"/><path class="cls-7" d="M545 616.28a10.06 10.06 0 002.93 7.17 9.94 9.94 0 007.41 3.17v1.58a11.92 11.92 0 1111.92-11.92zm20.55-1.6a9.81 9.81 0 00-3.56-6.22 10 10 0 00-6.65-2.5 10.09 10.09 0 00-6.74 2.5 10 10 0 00-3.48 6.22zM522.85 639.81a10.4 10.4 0 008.66 10.4v-22.14c4.38-.15 7.84 1.14 10.32 3.9a11.71 11.71 0 013.16 8h-1.58a9.36 9.36 0 00-3.27-7.48 10.05 10.05 0 00-7-2.8v22.14a11.92 11.92 0 01-11.86-12.06zM577.88 629.93a10.42 10.42 0 00-10.4 8.67h22.14c.16 4.37-1.14 7.84-3.9 10.32a11.71 11.71 0 01-8 3.15v-1.58a9.39 9.39 0 007.48-3.27 10.1 10.1 0 002.8-7h-22.17a11.92 11.92 0 0112-11.86z"/><path class="cls-7" d="M555.77 628.29a10.07 10.07 0 002.93 7.17 9.93 9.93 0 007.4 3.17v1.58a11.93 11.93 0 1111.9-11.9zm20.55-1.6a9.81 9.81 0 00-3.56-6.22 9.91 9.91 0 00-6.66-2.5 10.36 10.36 0 00-10.21 8.72z"/><path class="cls-7" d="M554 652.15a11.92 11.92 0 1111.92 11.92v-1.59a9.93 9.93 0 007.4-3.17 10 10 0 002.93-7.16zm22.13-1.62a9.94 9.94 0 00-3.48-6.22 10.07 10.07 0 00-6.73-2.49 10 10 0 00-6.66 2.49 9.81 9.81 0 00-3.56 6.22z"/><path class="cls-7" d="M555.28 652.14A11.9 11.9 0 01567.33 664h-22.14a10.14 10.14 0 002.8 7 9.45 9.45 0 007.48 3.27v1.57a11.66 11.66 0 01-8-3.15c-2.76-2.48-4.06-6-3.9-10.33h22.13a10.4 10.4 0 00-10.39-8.66z"/><path class="cls-7" d="M566.05 665.53a10.4 10.4 0 00-10.39 8.67h22.13c.16 4.37-1.14 7.84-3.9 10.32a11.66 11.66 0 01-8 3.15v-1.58a9.41 9.41 0 007.48-3.26 10.14 10.14 0 002.8-7H554a11.92 11.92 0 0112-11.86zM543.55 640.39a10.07 10.07 0 00-7.17 2.93 9.94 9.94 0 00-3.17 7.41h-1.58a11.93 11.93 0 1111.92 11.91zm1.6 20.55a9.81 9.81 0 006.22-3.56 10 10 0 002.5-6.65 10.11 10.11 0 00-2.5-6.74 9.94 9.94 0 00-6.22-3.48zM577.93 626.85a10.42 10.42 0 008.67 10.41v-22.14c4.37-.16 7.84 1.14 10.32 3.9a11.66 11.66 0 013.15 8h-1.57a9.43 9.43 0 00-3.28-7.49 10.07 10.07 0 00-7-2.79v22.14a11.88 11.88 0 01-11.85-12.06z"/><path class="cls-7" d="M589.72 640.25a10.07 10.07 0 002.93 7.17 9.93 9.93 0 007.4 3.17v1.58a11.91 11.91 0 1112-11.92zm20.58-1.61a9.8 9.8 0 00-3.59-6.21 9.91 9.91 0 00-6.66-2.5 10.36 10.36 0 00-10.21 8.71zM567.54 663.78a10.4 10.4 0 008.67 10.4V652c4.37-.16 7.83 1.14 10.32 3.9a11.71 11.71 0 013.15 8h-1.58a9.39 9.39 0 00-3.27-7.49 10.1 10.1 0 00-7-2.8v22.15A11.92 11.92 0 01566 663.78zM565.91 546.65a10.4 10.4 0 00-10.4 8.66h22.14c.15 4.38-1.15 7.84-3.9 10.32a11.71 11.71 0 01-8 3.16v-1.58a9.42 9.42 0 007.49-3.27 10.13 10.13 0 002.79-7h-22.18a11.92 11.92 0 0112.06-11.86z"/><path class="cls-7" d="M543.79 545a10.41 10.41 0 0010.33 10.34V557A11.94 11.94 0 11566 545zm20.55-1.6a9.76 9.76 0 00-3.56-6.22 10 10 0 00-6.66-2.49 10.07 10.07 0 00-6.73 2.49 9.94 9.94 0 00-3.48 6.22z"/><path class="cls-7" d="M542 568.87a11.93 11.93 0 1111.92 11.91v-1.58a10.41 10.41 0 0010.33-10.33zm22.14-1.63a10.27 10.27 0 00-16.85-6.24 9.82 9.82 0 00-3.57 6.21z"/><path class="cls-7" d="M543.3 568.86a11.87 11.87 0 0112.05 11.85h-22.14a10.1 10.1 0 002.8 7 9.42 9.42 0 007.49 3.29v1.57a11.67 11.67 0 01-8-3.15c-2.76-2.48-4.06-5.95-3.9-10.32h22.1a10.4 10.4 0 00-10.4-8.66z"/><path class="cls-7" d="M554.08 582.24a10.4 10.4 0 00-10.4 8.67h22.14c.15 4.37-1.15 7.84-3.9 10.32a11.7 11.7 0 01-8 3.15v-1.57a9.42 9.42 0 007.48-3.27 10.07 10.07 0 002.8-7H542a11.9 11.9 0 0112.06-11.86zM531.57 557.11a10.07 10.07 0 00-7.17 2.93 10 10 0 00-3.16 7.4h-1.59a11.93 11.93 0 1111.92 11.92zm1.6 20.55a10.55 10.55 0 008.72-10.22 10.38 10.38 0 00-8.72-10.22zM566 543.57a10.4 10.4 0 008.66 10.4v-22.14c4.38-.15 7.84 1.15 10.32 3.91a11.66 11.66 0 013.15 8h-1.57a9.37 9.37 0 00-3.27-7.48 10.1 10.1 0 00-7-2.8v22.14a11.92 11.92 0 01-11.86-12.06z"/><path class="cls-7" d="M577.74 557a10.41 10.41 0 0010.34 10.33v1.59A11.93 11.93 0 11600 557zm20.55-1.61a9.81 9.81 0 00-3.56-6.22 10 10 0 00-6.65-2.49 10.36 10.36 0 00-10.22 8.71zM555.56 580.49a10.4 10.4 0 008.67 10.4v-22.13c4.37-.16 7.84 1.14 10.32 3.9a11.66 11.66 0 013.15 8h-1.58a9.39 9.39 0 00-3.27-7.48 10.08 10.08 0 00-7-2.8v22.14A11.9 11.9 0 01554 580.49z"/></g></g><text class="cls-8" transform="translate(331.57 624.93)"><tspan class="cls-9">7</tspan><tspan class="cls-10" x="4.92" y="0">3</tspan><tspan class="cls-11" x="10.44" y="0">6</tspan><tspan x="16.29" y="0">7 </tspan><tspan class="cls-12" x="23.57" y="0">S</tspan><tspan x="30.06" y="0">W </tspan><tspan class="cls-13" x="41.8" y="0">B</tspan><tspan class="cls-14" x="48.8" y="0">r</tspan><tspan class="cls-15" x="52.71" y="0">i</tspan><tspan class="cls-16" x="55.78" y="0">d</tspan><tspan class="cls-17" x="61.3" y="0">g</tspan><tspan class="cls-11" x="66.36" y="0">e</tspan><tspan class="cls-18" x="71.52" y="0">p</tspan><tspan class="cls-19" x="76.9" y="0">o</tspan><tspan class="cls-20" x="82.14" y="0">r</tspan><tspan x="85.84" y="0">t </tspan><tspan class="cls-21" x="91.77" y="0">R</tspan><tspan x="99.03" y="0">d</tspan><tspan class="cls-20" x="0" y="16">P</tspan><tspan class="cls-19" x="6.84" y="16">o</tspan><tspan class="cls-20" x="12.08" y="16">r</tspan><tspan class="cls-21" x="15.78" y="16">t</tspan><tspan class="cls-22" x="19.28" y="16">l</tspan><tspan class="cls-23" x="22.42" y="16">a</tspan><tspan class="cls-19" x="27.92" y="16">n</tspan><tspan class="cls-9" x="33.65" y="16">d</tspan><tspan x="39.22" y="16">, </tspan><tspan class="cls-24" x="44.64" y="16">O</tspan><tspan x="51.12" y="16">R </tspan><tspan class="cls-16" x="60.81" y="16">9</tspan><tspan class="cls-20" x="66.66" y="16">7</tspan><tspan class="cls-25" x="71.58" y="16">2</tspan><tspan class="cls-26" x="77.31" y="16">2</tspan><tspan x="82.76" y="16">4</tspan><tspan class="cls-27" x="0" y="32">5</tspan><tspan class="cls-18" x="5.48" y="32">0</tspan><tspan class="cls-28" x="11.21" y="32">3</tspan><tspan class="cls-29" x="16.7" y="32">.</tspan><tspan class="cls-25" x="19.5" y="32">3</tspan><tspan class="cls-20" x="25.3" y="32">7</tspan><tspan class="cls-30" x="30.22" y="32">2</tspan><tspan class="cls-29" x="35.88" y="32">.</tspan><tspan class="cls-27" x="38.69" y="32">5</tspan><tspan class="cls-31" x="44.17" y="32">0</tspan><tspan class="cls-32" x="50.05" y="32">1</tspan><tspan x="54.16" y="32">3</tspan><tspan class="cls-33"><tspan x="0" y="62">ww</tspan><tspan class="cls-34" x="14.58" y="62">w</tspan><tspan class="cls-35" x="21.47" y="62">.</tspan><tspan class="cls-36" x="24.42" y="62">e</tspan><tspan class="cls-37" x="29.71" y="62">y</tspan><tspan class="cls-38" x="34.9" y="62">e</tspan><tspan class="cls-39" x="40.23" y="62">s</tspan><tspan class="cls-40" x="45.07" y="62">t</tspan><tspan class="cls-39" x="49.02" y="62">y</tspan><tspan class="cls-41" x="54.24" y="62">l</tspan><tspan class="cls-38" x="57.49" y="62">e</tspan><tspan class="cls-42" x="62.82" y="62">s</tspan><tspan class="cls-43" x="67.63" y="62">l</tspan><tspan class="cls-41" x="70.8" y="62">l</tspan><tspan class="cls-44" x="74.05" y="62">c</tspan><tspan class="cls-35" x="79.11" y="62">.</tspan><tspan class="cls-45" x="82.06" y="62">c</tspan><tspan class="cls-46" x="87.15" y="62">o</tspan><tspan class="cls-37" x="92.3" y="62">m</tspan></tspan></text><path class="cls-47" d="M331.54 512.66h253.99v83.88H331.54z"/><text class="cls-48" transform="translate(343.21 539.42)"><tspan class="cls-49">L</tspan><tspan class="cls-50" x="9.77" y="0">o</tspan><tspan class="cls-51" x="18.35" y="0">c</tspan><tspan class="cls-52" x="26.73" y="0">a</tspan><tspan class="cls-53" x="35.31" y="0">t</tspan><tspan class="cls-54" x="41.63" y="0">e</tspan><tspan x="50.22" y="0">d </tspan><tspan class="cls-55" x="63.62" y="0">a</tspan><tspan class="cls-56" x="72.3" y="0">c</tspan><tspan class="cls-57" x="80.56" y="0">r</tspan><tspan class="cls-58" x="86.9" y="0">o</tspan><tspan class="cls-59" x="95.65" y="0">s</tspan><tspan x="103.92" y="0">s </tspan><tspan class="cls-60" x="116.32" y="0">f</tspan><tspan class="cls-61" x="122.65" y="0">r</tspan><tspan class="cls-52" x="128.99" y="0">o</tspan><tspan x="137.46" y="0">m</tspan><tspan class="cls-62" x="0" y="22">U</tspan><tspan class="cls-63" x="10.94" y="22">r</tspan><tspan class="cls-54" x="17.14" y="22">b</tspan><tspan class="cls-64" x="26.06" y="22">a</tspan><tspan x="34.62" y="22">n </tspan><tspan class="cls-65" x="48.13" y="22">O</tspan><tspan class="cls-66" x="58.81" y="22">u</tspan><tspan class="cls-67" x="67.51" y="22">t</tspan><tspan class="cls-68" x="73.7" y="22">f</tspan><tspan class="cls-50" x="80.02" y="22">i</tspan><tspan class="cls-69" x="85.37" y="22">t</tspan><tspan class="cls-53" x="91.62" y="22">t</tspan><tspan class="cls-70" x="97.95" y="22">e</tspan><tspan class="cls-71" x="106.42" y="22">r</tspan><tspan x="112.93" y="22">s </tspan><tspan class="cls-64" x="0" y="44">a</tspan><tspan class="cls-55" x="8.56" y="44">n</tspan><tspan x="17.56" y="44">d </tspan><tspan class="cls-72" x="30.96" y="44">R</tspan><tspan class="cls-73" x="41.7" y="44">e</tspan><tspan class="cls-74" x="50.34" y="44">g</tspan><tspan class="cls-75" x="59.08" y="44">a</tspan><tspan x="67.62" y="44">l </tspan><tspan class="cls-76" x="77.47" y="44">C</tspan><tspan class="cls-77" x="87.91" y="44">im</tspan><tspan class="cls-78" x="106.41" y="44">e</tspan><tspan class="cls-79" x="114.85" y="44">n</tspan><tspan class="cls-56" x="123.82" y="44">a</tspan><tspan x="132.63" y="44">s</tspan></text></g></svg>