<svg xmlns="http://www.w3.org/2000/svg" viewBox="0 0 716.4 716.4">
  <circle cx="358.2" cy="358.2" r="358.2"/>
  <path d="M463.46 171.2H392.2v74h-60l-26.2-74H204l-133 375h107l23.44-74h126.1l-15.08-50.84-5-17.5-40.64-140.66h-18L294 421.36l9.29 32.84H188.35l-23.35 74H96l120.5-339h77l26.13 73.8.11.23h72.46v209h61.26c54 0 102.5-55 102.5-113.5s-48.5-113.5-102.5-113.5H410.2v-56h53.26c97 0 163.5 72.58 163.5 169.58s-66.5 169.54-163.5 169.54l-118.86.16 4.86 17.72h114c108.5 0 181.5-81 181.5-187.5S572 171.2 463.46 171.2zm-10 92c47.5 0 84.5 48.5 84.5 95.5s-37 95.5-84.5 95.5H410.2v-191z" fill="#cc4a6c"/>
</svg>
